<svg width="32" height="32" viewBox="0 0 32 32" fill="none" xmlns="http://www.w3.org/2000/svg">
<g clip-path="url(#clip0_101_8)">
<path fill-rule="evenodd" clip-rule="evenodd" d="M16.0003 0.666656C12.202 0.668627 8.52816 2.01393 5.63581 4.46202C2.74347 6.91011 0.821194 10.3013 0.212716 14.0293C-0.395762 17.7573 0.349225 21.5789 2.31448 24.8109C4.27974 28.0428 7.33711 30.4743 10.9399 31.6706C11.7347 31.8181 12.0341 31.3255 12.0341 30.9067C12.0341 30.4878 12.0182 29.2733 12.0129 27.9456C7.56185 28.9072 6.6213 26.0673 6.6213 26.0673C5.89536 24.2232 4.84617 23.7385 4.84617 23.7385C3.39428 22.7533 4.95481 22.7717 4.95481 22.7717C6.56302 22.885 7.4082 24.4129 7.4082 24.4129C8.8336 26.8444 11.1518 26.1411 12.0633 25.7301C12.2063 24.7001 12.6223 23.9993 13.0807 23.6015C9.5251 23.2011 5.78937 21.8365 5.78937 15.7406C5.76734 14.1596 6.35735 12.6307 7.43734 11.4702C7.27307 11.0698 6.72463 9.4523 7.59365 7.25523C7.59365 7.25523 8.93693 6.82846 11.9944 8.88591C14.6169 8.17282 17.3838 8.17282 20.0063 8.88591C23.0611 6.82846 24.4017 7.25523 24.4017 7.25523C25.2734 9.44703 24.725 11.0645 24.5607 11.4702C25.6441 12.6309 26.2354 14.1625 26.2113 15.7458C26.2113 21.8549 22.4676 23.2011 18.9068 23.5936C19.4791 24.0889 19.9904 25.0557 19.9904 26.5415C19.9904 28.6701 19.9719 30.3824 19.9719 30.9067C19.9719 31.3308 20.2606 31.826 21.0714 31.6706C24.6746 30.4742 27.7323 28.0423 29.6975 24.8098C31.6627 21.5773 32.4073 17.7551 31.7981 14.0267C31.189 10.2984 29.2657 6.90713 26.3724 4.45946C23.4791 2.0118 19.8045 0.667378 16.0056 0.666656H16.0003Z" fill="#191717"/>
<path d="M6.05924 23.5093C6.0248 23.5884 5.89762 23.6121 5.79429 23.5568C5.69097 23.5014 5.61414 23.3987 5.65123 23.317C5.68832 23.2354 5.81285 23.2143 5.91617 23.2696C6.0195 23.3249 6.09898 23.4303 6.05924 23.5093Z" fill="#191717"/>
<path d="M6.70838 24.2285C6.65351 24.256 6.59073 24.2637 6.5308 24.2502C6.47087 24.2368 6.41751 24.203 6.37985 24.1547C6.27652 24.0441 6.25531 23.8913 6.3348 23.8228C6.41428 23.7543 6.55736 23.7859 6.66069 23.8966C6.76402 24.0072 6.78786 24.16 6.70838 24.2285Z" fill="#191717"/>
<path d="M7.339 25.1426C7.24097 25.2111 7.07405 25.1426 6.98132 25.0057C6.95568 24.9811 6.93529 24.9516 6.92136 24.919C6.90743 24.8864 6.90024 24.8514 6.90024 24.816C6.90024 24.7806 6.90743 24.7455 6.92136 24.7129C6.93529 24.6803 6.95568 24.6509 6.98132 24.6263C7.07935 24.5605 7.24627 24.6263 7.339 24.7607C7.43173 24.895 7.43438 25.0742 7.339 25.1426V25.1426Z" fill="#191717"/>
<path d="M8.19474 26.0278C8.10731 26.1252 7.9298 26.0989 7.78408 25.9672C7.63836 25.8355 7.60391 25.6563 7.69134 25.5615C7.77877 25.4667 7.95628 25.493 8.1073 25.6221C8.25832 25.7512 8.28747 25.9329 8.19474 26.0278V26.0278Z" fill="#191717"/>
<path d="M9.39491 26.5441C9.35517 26.6679 9.175 26.7233 8.99484 26.6706C8.81468 26.6179 8.69545 26.4704 8.7299 26.3439C8.76434 26.2175 8.94715 26.1595 9.12996 26.2175C9.31278 26.2754 9.42935 26.415 9.39491 26.5441Z" fill="#191717"/>
<path d="M10.7038 26.6337C10.7038 26.7628 10.5554 26.8734 10.3647 26.8761C10.1739 26.8787 10.0176 26.7733 10.0176 26.6442C10.0176 26.5152 10.1659 26.4045 10.3567 26.4019C10.5475 26.3992 10.7038 26.502 10.7038 26.6337Z" fill="#191717"/>
<path d="M11.9225 26.4309C11.9464 26.5599 11.8139 26.6943 11.6231 26.7259C11.4324 26.7575 11.2655 26.6811 11.2416 26.5547C11.2178 26.4282 11.3555 26.2912 11.541 26.257C11.7265 26.2227 11.8987 26.3018 11.9225 26.4309Z" fill="#191717"/>
</g>
<defs>
<clipPath id="clip0_101_8">
<rect width="32" height="32" fill="white"/>
</clipPath>
</defs>
</svg>
