<svg width="18" height="17" viewBox="0 0 18 17" fill="none" xmlns="http://www.w3.org/2000/svg">
<path fill-rule="evenodd" clip-rule="evenodd" d="M17.5 8.5C17.5 8.80305 17.3881 9.09369 17.1888 9.30798C16.9896 9.52227 16.7194 9.64265 16.4376 9.64265H4.12887L8.69073 14.5469C8.78951 14.6531 8.86786 14.7793 8.92132 14.9181C8.97478 15.0569 9.00229 15.2057 9.00229 15.3559C9.00229 15.5062 8.97478 15.6549 8.92132 15.7937C8.86786 15.9325 8.78951 16.0587 8.69073 16.1649C8.59196 16.2711 8.4747 16.3554 8.34564 16.4129C8.21658 16.4704 8.07826 16.5 7.93857 16.5C7.79888 16.5 7.66056 16.4704 7.5315 16.4129C7.40244 16.3554 7.28518 16.2711 7.1864 16.1649L0.812114 9.309C0.713179 9.20286 0.634683 9.07676 0.581126 8.93794C0.527568 8.79912 0.5 8.6503 0.5 8.5C0.5 8.3497 0.527568 8.20088 0.581126 8.06206C0.634683 7.92324 0.713179 7.79715 0.812114 7.691L7.1864 0.835098C7.38589 0.620538 7.65645 0.5 7.93857 0.5C8.22069 0.5 8.49125 0.620538 8.69073 0.835098C8.89022 1.04966 9.00229 1.34066 9.00229 1.64409C9.00229 1.94753 8.89022 2.23853 8.69073 2.45309L4.12887 7.35735H16.4376C16.7194 7.35735 16.9896 7.47774 17.1888 7.69202C17.3881 7.90631 17.5 8.19695 17.5 8.5Z" fill="black"/>
</svg>
