<svg width="20" height="20" viewBox="0 0 20 20" fill="none" xmlns="http://www.w3.org/2000/svg">
<path d="M9.325 13.325C9.50833 13.5083 9.73767 13.596 10.013 13.588C10.2883 13.58 10.5173 13.484 10.7 13.3C10.8833 13.1167 10.975 12.8833 10.975 12.6C10.975 12.3167 10.8833 12.0833 10.7 11.9L9.8 11H13.025C13.3083 11 13.5417 10.9043 13.725 10.713C13.9083 10.5217 14 10.284 14 10C14 9.71667 13.904 9.47933 13.712 9.288C13.52 9.09667 13.2827 9.00067 13 9H9.8L10.725 8.075C10.9083 7.89167 10.996 7.66233 10.988 7.387C10.98 7.11167 10.884 6.88267 10.7 6.7C10.5167 6.51667 10.2833 6.425 10 6.425C9.71667 6.425 9.48333 6.51667 9.3 6.7L6.7 9.3C6.5 9.5 6.4 9.73333 6.4 10C6.4 10.2667 6.5 10.5 6.7 10.7L9.325 13.325ZM10 20C8.61667 20 7.31667 19.7373 6.1 19.212C4.88333 18.6867 3.825 17.9743 2.925 17.075C2.025 16.175 1.31267 15.1167 0.788 13.9C0.263333 12.6833 0.000666667 11.3833 0 10C0 8.61667 0.262667 7.31667 0.788 6.1C1.31333 4.88333 2.02567 3.825 2.925 2.925C3.825 2.025 4.88333 1.31267 6.1 0.788C7.31667 0.263333 8.61667 0.000666667 10 0C11.3833 0 12.6833 0.262667 13.9 0.788C15.1167 1.31333 16.175 2.02567 17.075 2.925C17.975 3.825 18.6877 4.88333 19.213 6.1C19.7383 7.31667 20.0007 8.61667 20 10C20 11.3833 19.7373 12.6833 19.212 13.9C18.6867 15.1167 17.9743 16.175 17.075 17.075C16.175 17.975 15.1167 18.6877 13.9 19.213C12.6833 19.7383 11.3833 20.0007 10 20ZM10 18C12.2167 18 14.1043 17.221 15.663 15.663C17.2217 14.105 18.0007 12.2173 18 10C18 7.78333 17.221 5.89567 15.663 4.337C14.105 2.77833 12.2173 1.99933 10 2C7.78333 2 5.89567 2.779 4.337 4.337C2.77833 5.895 1.99933 7.78267 2 10C2 12.2167 2.779 14.1043 4.337 15.663C5.895 17.2217 7.78267 18.0007 10 18Z" fill="black"/>
</svg>
