<svg width="37" height="37" viewBox="0 0 37 37" fill="none" xmlns="http://www.w3.org/2000/svg">
<path fill-rule="evenodd" clip-rule="evenodd" d="M34.6875 4.625C34.6875 4.01169 34.4439 3.42349 34.0102 2.98982C33.5765 2.55614 32.9883 2.3125 32.375 2.3125H4.625C4.01169 2.3125 3.42349 2.55614 2.98982 2.98982C2.55614 3.42349 2.3125 4.01169 2.3125 4.625V32.375C2.3125 32.9883 2.55614 33.5765 2.98982 34.0102C3.42349 34.4439 4.01169 34.6875 4.625 34.6875H32.375C32.9883 34.6875 33.5765 34.4439 34.0102 34.0102C34.4439 33.5765 34.6875 32.9883 34.6875 32.375V4.625ZM0 4.625C0 3.39837 0.487275 2.22199 1.35463 1.35463C2.22199 0.487275 3.39837 0 4.625 0L32.375 0C33.6016 0 34.778 0.487275 35.6454 1.35463C36.5127 2.22199 37 3.39837 37 4.625V32.375C37 33.6016 36.5127 34.778 35.6454 35.6454C34.778 36.5127 33.6016 37 32.375 37H4.625C3.39837 37 2.22199 36.5127 1.35463 35.6454C0.487275 34.778 0 33.6016 0 32.375V4.625ZM26.5938 17.3438C26.9004 17.3438 27.1945 17.4656 27.4113 17.6824C27.6282 17.8992 27.75 18.1933 27.75 18.5C27.75 18.8067 27.6282 19.1008 27.4113 19.3176C27.1945 19.5344 26.9004 19.6562 26.5938 19.6562H13.1974L18.1624 24.6189C18.2699 24.7264 18.3552 24.854 18.4133 24.9945C18.4715 25.1349 18.5015 25.2855 18.5015 25.4375C18.5015 25.5895 18.4715 25.7401 18.4133 25.8805C18.3552 26.021 18.2699 26.1486 18.1624 26.2561C18.0549 26.3636 17.9272 26.4489 17.7868 26.5071C17.6463 26.5653 17.4958 26.5952 17.3438 26.5952C17.1917 26.5952 17.0412 26.5653 16.9007 26.5071C16.7603 26.4489 16.6326 26.3636 16.5251 26.2561L9.58762 19.3186C9.47995 19.2112 9.39452 19.0836 9.33623 18.9432C9.27794 18.8027 9.24793 18.6521 9.24793 18.5C9.24793 18.3479 9.27794 18.1973 9.33623 18.0568C9.39452 17.9164 9.47995 17.7888 9.58762 17.6814L16.5251 10.7439C16.7422 10.5268 17.0367 10.4048 17.3438 10.4048C17.6508 10.4048 17.9453 10.5268 18.1624 10.7439C18.3795 10.961 18.5015 11.2555 18.5015 11.5625C18.5015 11.8695 18.3795 12.164 18.1624 12.3811L13.1974 17.3438H26.5938Z" fill="black"/>
</svg>
