<svg width="201" height="202" viewBox="0 0 201 202" fill="none" xmlns="http://www.w3.org/2000/svg">
<path d="M109.37 160.53C110.489 161.645 111.376 162.97 111.982 164.428C112.588 165.887 112.899 167.451 112.899 169.03C112.899 170.609 112.588 172.173 111.982 173.632C111.376 175.09 110.489 176.415 109.37 177.53L103.43 183.47C92.1741 194.726 76.908 201.049 60.9899 201.049C45.0718 201.049 29.8057 194.726 18.5499 183.47C7.29414 172.214 0.970703 156.948 0.970703 141.03C0.970703 125.112 7.29414 109.846 18.5499 98.5899L42.6699 74.4799C53.4848 63.6384 68.0357 57.3422 83.3422 56.8811C98.6486 56.4201 113.552 61.829 125 71.9999C126.182 73.0505 127.145 74.3236 127.835 75.7465C128.525 77.1694 128.928 78.7142 129.021 80.2928C129.114 81.8714 128.895 83.4529 128.376 84.9468C127.858 86.4408 127.05 87.818 126 88.9999C124.949 90.1818 123.676 91.1452 122.253 91.8351C120.83 92.525 119.286 92.9279 117.707 93.0208C116.128 93.1136 114.547 92.8946 113.053 92.3763C111.559 91.858 110.182 91.0505 109 89.9999C102.135 83.9032 93.2003 80.6598 84.0231 80.933C74.8459 81.2063 66.1198 84.9756 59.6299 91.4699L35.5299 115.55C28.7775 122.302 24.9841 131.461 24.9841 141.01C24.9841 150.559 28.7775 159.718 35.5299 166.47C42.2823 173.222 51.4406 177.016 60.9899 177.016C70.5393 177.016 79.6975 173.222 86.4499 166.47L92.3899 160.53C93.5044 159.414 94.8279 158.529 96.2846 157.925C97.7414 157.321 99.3029 157.01 100.88 157.01C102.457 157.01 104.018 157.321 105.475 157.925C106.932 158.529 108.255 159.414 109.37 160.53ZM183.45 18.5299C172.185 7.29147 156.922 0.97998 141.01 0.97998C125.098 0.97998 109.835 7.29147 98.5699 18.5299L92.6299 24.4699C90.3756 26.7243 89.1091 29.7818 89.1091 32.9699C89.1091 36.1581 90.3756 39.2156 92.6299 41.4699C94.8843 43.7243 97.9418 44.9908 101.13 44.9908C104.318 44.9908 107.376 43.7243 109.63 41.4699L115.57 35.5299C122.322 28.7775 131.481 24.9841 141.03 24.9841C150.579 24.9841 159.738 28.7775 166.49 35.5299C173.242 42.2824 177.036 51.4406 177.036 60.9899C177.036 70.5393 173.242 79.6975 166.49 86.4499L142.38 110.57C135.884 117.062 127.153 120.825 117.974 121.091C108.794 121.357 99.8603 118.105 92.9999 112C91.818 110.949 90.4408 110.142 88.9468 109.624C87.4528 109.105 85.8714 108.886 84.2928 108.979C82.7142 109.072 81.1694 109.475 79.7465 110.165C78.3236 110.855 77.0505 111.818 75.9999 113C74.9493 114.182 74.1419 115.559 73.6236 117.053C73.1052 118.547 72.8863 120.128 72.9791 121.707C73.072 123.286 73.4748 124.83 74.1647 126.253C74.8546 127.676 75.818 128.949 76.9999 130C88.4397 140.169 103.333 145.581 118.633 145.129C133.932 144.677 148.48 138.396 159.3 127.57L183.42 103.46C194.672 92.1977 200.994 76.9308 201 61.0112C201.005 45.0915 194.694 29.8201 183.45 18.5499V18.5299Z" fill="black"/>
</svg>
