<svg width="119" height="119" viewBox="0 0 119 119" fill="none" xmlns="http://www.w3.org/2000/svg">
<mask id="mask0_221_248" style="mask-type:alpha" maskUnits="userSpaceOnUse" x="16" y="18" width="82" height="86">
<path d="M83.7921 96.8736L76.014 86.267L92.631 80.9637L97.2272 48.7904L77.7817 40.6586L85.2063 35.3553L74.9533 18.0312L29.6985 27.2236L16.617 40.3051L18.0312 74.9533L46.3155 103.238L83.7921 96.8736Z" fill="#3178C6"/>
</mask>
<g mask="url(#mask0_221_248)">
<rect x="73.5391" y="133.29" width="109" height="87" transform="rotate(-135 73.5391 133.29)" fill="#479CEA"/>
<path d="M71.9012 42.5134L68.4483 81.1947L52.9274 85.4976L37.4492 81.2008L33.9999 42.5134H71.9012Z" fill="#264DE4"/>
<path d="M65.4923 78.7317L68.443 45.6768H52.9506V82.2087L65.4923 78.7317Z" fill="#2965F1"/>
<path d="M41.9073 60.0254L42.3325 64.7702H52.9506V60.0254H41.9073Z" fill="#EBEBEB"/>
<path d="M52.9506 50.4216H52.9342H41.0528L41.4841 55.1665H52.9506V50.4216Z" fill="#EBEBEB"/>
<path d="M52.9506 77.285V72.3484L52.9298 72.3539L47.6454 70.9271L47.3076 67.1428H44.7398H42.5445L43.2093 74.5929L52.9287 77.2911L52.9506 77.285Z" fill="#EBEBEB"/>
<path d="M42.9197 32H48.6666V34.4032H45.323V36.8064H48.6666V39.2097H42.9197V32Z" fill="black"/>
<path d="M49.8159 32H55.5628V34.0898H52.2192V34.5077H55.5628V39.3141H49.8159V37.1199H53.1596V36.702H49.8159V32Z" fill="black"/>
<path d="M56.7121 32H62.459V34.0898H59.1154V34.5077H62.459V39.3141H56.7121V37.1199H60.0558V36.702H56.7121V32Z" fill="black"/>
<path d="M58.7769 64.7701L58.2262 70.9238L52.9342 72.3522V77.2886L62.6614 74.5927L62.7327 73.7911L63.8477 61.2994L63.9635 60.0253L64.8201 50.4216H52.9342V55.1665H59.6201L59.1884 60.0253H52.9342V64.7701H58.7769Z" fill="white"/>
</g>
</svg>
