<svg width="119" height="119" viewBox="0 0 119 119" fill="none" xmlns="http://www.w3.org/2000/svg">
<mask id="mask0_221_241" style="mask-type:alpha" maskUnits="userSpaceOnUse" x="21" y="15" width="82" height="86">
<path d="M35.0018 21.9203L42.78 32.5269L26.163 37.8302L21.5668 70.0036L41.0122 78.1353L33.5876 83.4386L43.8406 100.763L89.0955 91.5703L102.177 78.4889L100.763 43.8406L72.4785 15.5563L35.0018 21.9203Z" fill="#3178C6"/>
</mask>
<g mask="url(#mask0_221_241)">
<rect x="45.2549" y="-14.4956" width="109" height="87" transform="rotate(45 45.2549 -14.4956)" fill="#FF792E"/>
<path d="M52.4328 33H54.7688V35.3156H56.9219V33H59.2578V40.0078H56.9219V37.6719H54.7891V40.0078H52.4328M62.3453 35.3359H60.2836V33H66.7532V35.3359H64.6813V40.0078H62.3453M67.7789 33H70.2266L71.7297 35.468L73.2329 33H75.6805V40.0078H73.3446V36.5344L71.7094 39.0531L70.0743 36.5344V40.0078H67.7789M76.8383 33H79.1743V37.6922H82.4852V40.0078H76.8383" fill="black"/>
<path d="M52.3516 80.8361L49 43.2173H85.8469L82.4954 80.8158L67.393 85.0002" fill="#E44D26"/>
<path d="M67.4235 81.8009V46.3047H82.4852L79.611 78.3985" fill="#F16529"/>
<path d="M55.8453 50.9055H67.4235V55.5165H60.9031L61.3297 60.2391H67.4235V64.8399H57.1047M57.3078 67.1555H61.9391L62.2641 70.8423L67.4235 72.2235V77.0376L57.9578 74.397" fill="#EBEBEB"/>
<path d="M78.961 50.9055H67.4032V55.5165H78.5344M78.118 60.2391H67.4032V64.8501H73.0907L72.5524 70.8423L67.4032 72.2235V77.0173L76.8485 74.397" fill="white"/>
</g>
</svg>
