<svg width="119" height="119" viewBox="0 0 119 119" fill="none" xmlns="http://www.w3.org/2000/svg">
<mask id="mask0_221_236" style="mask-type:alpha" maskUnits="userSpaceOnUse" x="21" y="15" width="82" height="86">
<path d="M35.0018 21.9203L42.78 32.5269L26.163 37.8302L21.5668 70.0036L41.0122 78.1353L33.5876 83.4386L43.8406 100.763L89.0955 91.5703L102.177 78.4889L100.763 43.8406L72.4785 15.5563L35.0018 21.9203Z" fill="#3178C6"/>
</mask>
<g mask="url(#mask0_221_236)">
<rect x="45.2549" y="-14.4956" width="109" height="87" transform="rotate(45 45.2549 -14.4956)" fill="#F7DF1E"/>
<path d="M98.2061 19.4023H29.402V88.2064H98.2061V19.4023Z" fill="#F7DF1E"/>
<path d="M75.6209 73.1556C77.0068 75.4185 78.8099 77.0818 81.9989 77.0818C84.6779 77.0818 86.3893 75.7429 86.3893 73.8928C86.3893 71.6758 84.631 70.8905 81.6822 69.6007L80.0659 68.9072C75.4003 66.9196 72.3008 64.4295 72.3008 59.1654C72.3008 54.3164 75.9955 50.625 81.7696 50.625C85.8804 50.625 88.8357 52.0557 90.9653 55.8017L85.9306 59.0344C84.8221 57.0467 83.6262 56.2637 81.7696 56.2637C79.8758 56.2637 78.6756 57.465 78.6756 59.0344C78.6756 60.974 79.8769 61.7592 82.6509 62.9606L84.2673 63.653C89.7607 66.0087 92.8623 68.4103 92.8623 73.8098C92.8623 79.6308 88.2896 82.8199 82.1486 82.8199C76.144 82.8199 72.2648 79.9585 70.3667 76.2081L75.6209 73.1556ZM52.7812 73.7159C53.7969 75.5179 54.7208 77.0414 56.9422 77.0414C59.0664 77.0414 60.4065 76.2103 60.4065 72.9787V50.9941H66.8719V73.0661C66.8719 79.7608 62.9467 82.8078 57.2174 82.8078C52.0408 82.8078 49.0429 80.1289 47.5182 76.9022L52.7812 73.7159Z" fill="black"/>
</g>
</svg>
