<svg width="106" height="101" viewBox="0 0 106 101" fill="none" xmlns="http://www.w3.org/2000/svg">
<mask id="mask0_221_258" style="mask-type:alpha" maskUnits="userSpaceOnUse" x="6" y="6" width="87" height="89">
<path d="M92.5419 70.4601L80.5025 65.1636L92.2416 52.2623L80.1353 22.1013L59.2292 24.7817L63.0075 16.4766L45.466 6.6L10.8704 37.1883L6.08223 55.0579L24.6311 84.357L63.2681 94.7098L92.5419 70.4601Z" fill="#3178C6"/>
</mask>
<g mask="url(#mask0_221_258)">
<rect x="101.87" y="107.124" width="109" height="87" transform="rotate(-165 101.87 107.124)" fill="black"/>
<path d="M47.1111 84.5187C64.457 84.5187 78.5185 70.4571 78.5185 53.1113C78.5185 35.7654 64.457 21.7039 47.1111 21.7039C29.7653 21.7039 15.7037 35.7654 15.7037 53.1113C15.7037 70.4571 29.7653 84.5187 47.1111 84.5187Z" fill="white"/>
<path d="M45.0541 21.7208C44.919 21.733 44.4893 21.776 44.1024 21.8067C35.1806 22.611 26.8237 27.4242 21.5308 34.8221C18.5835 38.9355 16.6984 43.6014 15.9862 48.5436C15.7344 50.2687 15.7037 50.7783 15.7037 53.1174C15.7037 55.4565 15.7344 55.9661 15.9862 57.6912C17.6932 69.4849 26.0869 79.3938 37.4709 83.0649C39.5095 83.722 41.6586 84.1702 44.1024 84.4404C45.0541 84.5446 49.1681 84.5446 50.1199 84.4404C54.3382 83.9738 57.9118 82.9303 61.4363 81.1312C61.9767 80.855 62.0811 80.7812 62.0074 80.7199C61.9582 80.683 59.6556 77.5951 56.8925 73.8621L51.8698 67.0783L45.576 57.7649C42.113 52.6447 39.2639 48.4576 39.2393 48.4576C39.2148 48.4515 39.1902 52.5894 39.1779 57.6421C39.1595 66.4889 39.1533 66.845 39.0428 67.0538C38.8832 67.3546 38.7604 67.4774 38.5025 67.6124C38.306 67.7107 38.1341 67.7291 37.2069 67.7291H36.1446L35.8622 67.551C35.678 67.4344 35.5429 67.2809 35.4508 67.1029L35.3218 66.8266L35.3341 54.5172L35.3525 42.2016L35.5429 41.9622C35.6411 41.8333 35.8499 41.6675 35.9972 41.5877C36.249 41.4649 36.3473 41.4526 37.4095 41.4526C38.6621 41.4526 38.8709 41.5017 39.1964 41.8578C39.2884 41.956 42.6963 47.0886 46.7734 53.2709C50.8505 59.4532 56.4259 67.8948 59.1644 72.039L64.1381 79.5718L64.3898 79.4062C66.6186 77.957 68.9767 75.8946 70.8432 73.7454C74.8159 69.1841 77.3764 63.6218 78.2359 57.6912C78.4876 55.9661 78.5185 55.4565 78.5185 53.1174C78.5185 50.7783 78.4876 50.2687 78.2359 48.5436C76.5289 36.7499 68.1351 26.841 56.7513 23.1696C54.7435 22.5189 52.6067 22.0707 50.2119 21.8006C49.6225 21.7392 45.5638 21.6716 45.0541 21.7208ZM57.9118 40.7159C58.2066 40.8633 58.4461 41.1457 58.532 41.4404C58.5811 41.6 58.5934 45.0135 58.5811 52.7061L58.5627 63.7446L56.6162 60.7609L54.6637 57.7772V49.7531C54.6637 44.5653 54.6882 41.6491 54.725 41.5079C54.8233 41.1641 55.0382 40.894 55.3329 40.7344C55.5847 40.6054 55.6768 40.5931 56.6408 40.5931C57.5495 40.5931 57.7092 40.6054 57.9118 40.7159Z" fill="black"/>
</g>
</svg>
