<svg width="96" height="81" viewBox="0 0 96 81" fill="none" xmlns="http://www.w3.org/2000/svg">
<mask id="mask0_221_182" style="mask-type:alpha" maskUnits="userSpaceOnUse" x="0" y="0" width="96" height="81">
<path d="M0 35.5L24.5 42L10.5 55.5L37.5 80.5L54.5 55.5L49 80.5H70.5L96 42V19.5L70.5 0H31L0 35.5Z" fill="#3178C6"/>
</mask>
<g mask="url(#mask0_221_182)">
<rect x="-7" y="-6.5" width="109" height="87" fill="#3178C6"/>
<path d="M77.6523 -14.5H25.3477C21.8419 -14.5 19 -11.6581 19 -8.15234V44.1523C19 47.6581 21.8419 50.5 25.3477 50.5H77.6523C81.1581 50.5 84 47.6581 84 44.1523V-8.15234C84 -11.6581 81.1581 -14.5 77.6523 -14.5Z" fill="#3178C6"/>
<path fill-rule="evenodd" clip-rule="evenodd" d="M59.2441 37.17V43.5176C60.2725 44.0508 61.5293 44.4444 62.9258 44.711C64.3223 44.9776 65.8457 45.1045 67.3691 45.1045C68.8926 45.1045 70.2891 44.9649 71.6855 44.6729C73.082 44.3809 74.2246 43.8985 75.2402 43.2764C76.2686 42.6036 77.1445 41.753 77.6523 40.6104C78.1602 39.4678 78.5537 38.1983 78.5537 36.5479C78.5537 35.3926 78.376 34.3897 78.0332 33.501C77.6904 32.6124 77.1953 31.8506 76.5098 31.2159C75.8623 30.543 75.1133 29.9463 74.2246 29.4385C73.3359 28.9307 72.3203 28.3975 71.1777 27.9151C70.3398 27.5723 69.6543 27.2422 68.8926 26.9122C68.2324 26.5821 67.6611 26.252 67.2422 25.9219C66.7725 25.5791 66.417 25.2237 66.1631 24.8555C65.9092 24.4747 65.7822 24.0557 65.7822 23.586C65.7822 23.1543 65.8952 22.7608 66.125 22.4053C66.3548 22.0499 66.6709 21.7579 67.0771 21.504C67.4834 21.25 67.9912 21.0596 68.6006 20.92C69.1973 20.7803 69.8574 20.7168 70.6318 20.7168C71.165 20.7168 71.7236 20.7562 72.2822 20.8362C72.8662 20.9162 73.4629 21.0393 74.0596 21.2043C74.6563 21.3694 75.2402 21.5725 75.8369 21.8264C76.3955 22.0803 76.916 22.3723 77.3604 22.7024V16.7356C76.3955 16.3674 75.3291 16.0881 74.1865 15.9104C73.0439 15.7327 71.7744 15.6438 70.251 15.6438C68.7275 15.6438 67.3311 15.8088 65.9346 16.1262C64.5381 16.4436 63.3955 16.9514 62.3799 17.6497C61.3516 18.3352 60.6025 19.1731 59.9678 20.3157C59.3711 21.3821 59.0791 22.6008 59.0791 24.1243C59.0791 26.0286 59.625 27.679 60.7295 28.9485C61.8213 30.345 63.5225 31.3606 65.6807 32.3762C66.5566 32.7317 67.3311 33.0872 68.0928 33.4299C68.8545 33.7727 69.4893 34.1282 69.9971 34.4963C70.543 34.8645 70.9746 35.2708 71.2666 35.7024C71.584 36.134 71.749 36.6418 71.749 37.2258C71.749 37.6321 71.65 38.0129 71.457 38.3684C71.2641 38.7239 70.9619 39.0286 70.5557 39.2825C70.1494 39.5364 69.6543 39.7395 69.0322 39.8918C68.4355 40.0315 67.7627 40.1077 66.874 40.1077C65.4775 40.1077 64.0811 39.8665 62.8115 39.384C61.415 38.9016 60.1455 38.178 59.0029 37.2258L59.2441 37.17ZM48.5801 21.5547H56.7051V16.3497H33.9805V21.5547H42.1055V44.7872H48.5801V21.5547Z" fill="white"/>
</g>
</svg>
