<svg width="37" height="37" viewBox="0 0 37 37" fill="none" xmlns="http://www.w3.org/2000/svg">
<path fill-rule="evenodd" clip-rule="evenodd" d="M34.6875 4.625C34.6875 4.01169 34.4439 3.42349 34.0102 2.98982C33.5765 2.55614 32.9883 2.3125 32.375 2.3125H4.625C4.01169 2.3125 3.42349 2.55614 2.98982 2.98982C2.55614 3.42349 2.3125 4.01169 2.3125 4.625V32.375C2.3125 32.9883 2.55614 33.5765 2.98982 34.0102C3.42349 34.4439 4.01169 34.6875 4.625 34.6875H32.375C32.9883 34.6875 33.5765 34.4439 34.0102 34.0102C34.4439 33.5765 34.6875 32.9883 34.6875 32.375V4.625ZM0 4.625C0 3.39837 0.487275 2.22199 1.35463 1.35463C2.22199 0.487275 3.39837 0 4.625 0L32.375 0C33.6016 0 34.778 0.487275 35.6454 1.35463C36.5127 2.22199 37 3.39837 37 4.625V32.375C37 33.6016 36.5127 34.778 35.6454 35.6454C34.778 36.5127 33.6016 37 32.375 37H4.625C3.39837 37 2.22199 36.5127 1.35463 35.6454C0.487275 34.778 0 33.6016 0 32.375V4.625ZM10.4062 17.3438C10.0996 17.3438 9.8055 17.4656 9.58866 17.6824C9.37182 17.8992 9.25 18.1933 9.25 18.5C9.25 18.8067 9.37182 19.1008 9.58866 19.3176C9.8055 19.5344 10.0996 19.6562 10.4062 19.6562H23.8026L18.8376 24.6189C18.7301 24.7264 18.6448 24.854 18.5867 24.9945C18.5285 25.1349 18.4985 25.2855 18.4985 25.4375C18.4985 25.5895 18.5285 25.7401 18.5867 25.8805C18.6448 26.021 18.7301 26.1486 18.8376 26.2561C18.9451 26.3636 19.0728 26.4489 19.2132 26.5071C19.3537 26.5653 19.5042 26.5952 19.6562 26.5952C19.8083 26.5952 19.9588 26.5653 20.0993 26.5071C20.2397 26.4489 20.3674 26.3636 20.4749 26.2561L27.4124 19.3186C27.5201 19.2112 27.6055 19.0836 27.6638 18.9432C27.7221 18.8027 27.7521 18.6521 27.7521 18.5C27.7521 18.3479 27.7221 18.1973 27.6638 18.0568C27.6055 17.9164 27.5201 17.7888 27.4124 17.6814L20.4749 10.7439C20.3674 10.6364 20.2397 10.5511 20.0993 10.4929C19.9588 10.4347 19.8083 10.4048 19.6562 10.4048C19.5042 10.4048 19.3537 10.4347 19.2132 10.4929C19.0728 10.5511 18.9451 10.6364 18.8376 10.7439C18.7301 10.8514 18.6448 10.979 18.5867 11.1195C18.5285 11.2599 18.4985 11.4105 18.4985 11.5625C18.4985 11.7145 18.5285 11.8651 18.5867 12.0055C18.6448 12.146 18.7301 12.2736 18.8376 12.3811L23.8026 17.3438H10.4062Z" fill="black"/>
</svg>
