<svg width="17" height="16" viewBox="0 0 17 16" fill="none" xmlns="http://www.w3.org/2000/svg">
<path fill-rule="evenodd" clip-rule="evenodd" d="M17 8C17 8.30305 16.8881 8.59369 16.6888 8.80798C16.4896 9.02227 16.2194 9.14265 15.9376 9.14265H3.62887L8.19074 14.0469C8.28951 14.1531 8.36786 14.2793 8.42132 14.4181C8.47478 14.5569 8.50229 14.7057 8.50229 14.8559C8.50229 15.0062 8.47478 15.1549 8.42132 15.2937C8.36786 15.4325 8.28951 15.5587 8.19074 15.6649C8.09196 15.7711 7.9747 15.8554 7.84564 15.9129C7.71658 15.9704 7.57826 16 7.43857 16C7.29888 16 7.16056 15.9704 7.0315 15.9129C6.90244 15.8554 6.78518 15.7711 6.6864 15.6649L0.312114 8.809C0.213179 8.70286 0.134683 8.57676 0.0811257 8.43794C0.027568 8.29912 0 8.1503 0 8C0 7.8497 0.027568 7.70088 0.0811257 7.56206C0.134683 7.42324 0.213179 7.29715 0.312114 7.191L6.6864 0.335098C6.88589 0.120538 7.15645 0 7.43857 0C7.72069 0 7.99125 0.120538 8.19074 0.335098C8.39022 0.549657 8.50229 0.840662 8.50229 1.14409C8.50229 1.44753 8.39022 1.73853 8.19074 1.95309L3.62887 6.85735H15.9376C16.2194 6.85735 16.4896 6.97774 16.6888 7.19202C16.8881 7.40631 17 7.69695 17 8Z" fill="black"/>
</svg>
