<svg width="200" height="90" viewBox="0 0 200 90" fill="none" xmlns="http://www.w3.org/2000/svg">
<g filter="url(#filter0_i_136_631)">
<path d="M155 0H45C20.1472 0 0 20.1472 0 45C0 69.8528 20.1472 90 45 90H155C179.853 90 200 69.8528 200 45C200 20.1472 179.853 0 155 0Z" fill="url(#paint0_linear_136_631)"/>
</g>
<path fill-rule="evenodd" clip-rule="evenodd" d="M46.4628 36.3595C44.6096 38.0024 42.1713 39 39.5 39C36.3477 39 33.5198 37.6108 31.5951 35.4113C30.8097 35.7886 29.9296 36 29 36C25.6863 36 23 33.3137 23 30C23 26.6863 25.6863 24 29 24C29.3315 24 29.6567 24.0269 29.9735 24.0786C31.6424 20.4888 35.2805 18 39.5 18C42.924 18 45.9652 19.6389 47.8819 22.175C48.403 22.0604 48.9445 22 49.5 22C53.6421 22 57 25.3579 57 29.5C57 33.6421 53.6421 37 49.5 37C48.4189 37 47.3912 36.7713 46.4628 36.3595Z" fill="url(#paint1_linear_136_631)"/>
<path fill-rule="evenodd" clip-rule="evenodd" d="M98.4215 21.7198C97.4404 22.5895 96.1495 23.1176 94.7353 23.1176C93.0664 23.1176 91.5693 22.3822 90.5504 21.2177C90.1346 21.4175 89.6686 21.5294 89.1765 21.5294C87.4222 21.5294 86 20.1073 86 18.3529C86 16.5986 87.4222 15.1765 89.1765 15.1765C89.352 15.1765 89.5241 15.1907 89.6919 15.2181C90.5754 13.3176 92.5015 12 94.7353 12C96.548 12 98.158 12.8676 99.1728 14.2103C99.4487 14.1496 99.7353 14.1176 100.029 14.1176C102.222 14.1176 104 15.8953 104 18.0882C104 20.2811 102.222 22.0588 100.029 22.0588C99.4571 22.0588 98.913 21.9377 98.4215 21.7198Z" fill="url(#paint2_linear_136_631)"/>
<path fill-rule="evenodd" clip-rule="evenodd" d="M94.3222 45.1196C92.7961 46.4726 90.7881 47.2941 88.5882 47.2941C85.9922 47.2941 83.6633 46.1501 82.0783 44.3387C81.4315 44.6494 80.7067 44.8235 79.9412 44.8235C77.2122 44.8235 75 42.6113 75 39.8823C75 37.1534 77.2122 34.9411 79.9412 34.9411C80.2141 34.9411 80.4819 34.9633 80.7429 35.0059C82.1173 32.0496 85.1134 30 88.5882 30C91.408 30 93.9125 31.3497 95.491 33.4383C95.9202 33.3439 96.366 33.2942 96.8236 33.2942C100.235 33.2942 103 36.0595 103 39.4706C103 42.8818 100.235 45.6471 96.8236 45.6471C95.9332 45.6471 95.0869 45.4587 94.3222 45.1196Z" fill="url(#paint3_linear_136_631)"/>
<g filter="url(#filter1_d_136_631)">
<path d="M155 80C174.33 80 190 64.33 190 45C190 25.67 174.33 10 155 10C135.67 10 120 25.67 120 45C120 64.33 135.67 80 155 80Z" fill="url(#paint4_linear_136_631)"/>
<path d="M155 74C171.016 74 184 61.0163 184 45C184 28.9837 171.016 16 155 16C138.984 16 126 28.9837 126 45C126 61.0163 138.984 74 155 74Z" fill="url(#paint5_linear_136_631)"/>
<path d="M155 80C174.33 80 190 64.33 190 45C190 25.67 174.33 10 155 10C135.67 10 120 25.67 120 45C120 64.33 135.67 80 155 80Z" fill="#FF9255"/>
<path d="M155 74C171.016 74 184 61.0163 184 45C184 28.9837 171.016 16 155 16C138.984 16 126 28.9837 126 45C126 61.0163 138.984 74 155 74Z" fill="url(#paint6_linear_136_631)"/>
<mask id="mask0_136_631" style="mask-type:alpha" maskUnits="userSpaceOnUse" x="120" y="10" width="70" height="70">
<path d="M155 80C174.33 80 190 64.33 190 45C190 25.67 174.33 10 155 10C135.67 10 120 25.67 120 45C120 64.33 135.67 80 155 80Z" fill="url(#paint7_linear_136_631)"/>
</mask>
<g mask="url(#mask0_136_631)">
<path d="M162.5 48.0259C181.3 26.0259 200 25.5259 207 28.0259L218.5 39.0259L208.5 86.5259L136 109.026L95.5 90.5259L91 46.5259C107 56.1925 143.7 70.0259 162.5 48.0259Z" fill="url(#paint8_linear_136_631)"/>
<path d="M152 44.9826C110.803 20 98.6671 27.5952 92.4283 31.6358L83.7615 44.9826L104.402 88.917L180.131 94.1674L215.301 66.8616L209.577 23.0041C196.224 36.0865 178.23 60.8889 152 44.9826Z" fill="url(#paint9_linear_136_631)"/>
</g>
</g>
<defs>
<filter id="filter0_i_136_631" x="0" y="0" width="200" height="96" filterUnits="userSpaceOnUse" color-interpolation-filters="sRGB">
<feFlood flood-opacity="0" result="BackgroundImageFix"/>
<feBlend mode="normal" in="SourceGraphic" in2="BackgroundImageFix" result="shape"/>
<feColorMatrix in="SourceAlpha" type="matrix" values="0 0 0 0 0 0 0 0 0 0 0 0 0 0 0 0 0 0 127 0" result="hardAlpha"/>
<feOffset dy="6"/>
<feGaussianBlur stdDeviation="4"/>
<feComposite in2="hardAlpha" operator="arithmetic" k2="-1" k3="1"/>
<feColorMatrix type="matrix" values="0 0 0 0 0 0 0 0 0 0 0 0 0 0 0 0 0 0 0.25 0"/>
<feBlend mode="normal" in2="shape" result="effect1_innerShadow_136_631"/>
</filter>
<filter id="filter1_d_136_631" x="112" y="5" width="82" height="82" filterUnits="userSpaceOnUse" color-interpolation-filters="sRGB">
<feFlood flood-opacity="0" result="BackgroundImageFix"/>
<feColorMatrix in="SourceAlpha" type="matrix" values="0 0 0 0 0 0 0 0 0 0 0 0 0 0 0 0 0 0 127 0" result="hardAlpha"/>
<feOffset dx="-2" dy="1"/>
<feGaussianBlur stdDeviation="3"/>
<feColorMatrix type="matrix" values="0 0 0 0 0 0 0 0 0 0 0 0 0 0 0 0 0 0 0.25 0"/>
<feBlend mode="normal" in2="BackgroundImageFix" result="effect1_dropShadow_136_631"/>
<feBlend mode="normal" in="SourceGraphic" in2="effect1_dropShadow_136_631" result="shape"/>
</filter>
<linearGradient id="paint0_linear_136_631" x1="100" y1="0" x2="100" y2="90" gradientUnits="userSpaceOnUse">
<stop stop-color="#66FFED"/>
<stop offset="1" stop-color="#FFEEB2"/>
</linearGradient>
<linearGradient id="paint1_linear_136_631" x1="40" y1="18" x2="40" y2="39" gradientUnits="userSpaceOnUse">
<stop stop-color="#FFF48F"/>
<stop offset="1" stop-color="#FFFEEA" stop-opacity="0"/>
</linearGradient>
<linearGradient id="paint2_linear_136_631" x1="95" y1="12" x2="95" y2="23.1176" gradientUnits="userSpaceOnUse">
<stop stop-color="#FFF48F"/>
<stop offset="1" stop-color="#FFFEEA" stop-opacity="0"/>
</linearGradient>
<linearGradient id="paint3_linear_136_631" x1="89" y1="30" x2="89" y2="47.2941" gradientUnits="userSpaceOnUse">
<stop stop-color="#FFF48F"/>
<stop offset="1" stop-color="#FFFEEA" stop-opacity="0"/>
</linearGradient>
<linearGradient id="paint4_linear_136_631" x1="155" y1="10" x2="155" y2="80" gradientUnits="userSpaceOnUse">
<stop stop-color="#FFC123"/>
<stop offset="1" stop-color="#F8832E"/>
</linearGradient>
<linearGradient id="paint5_linear_136_631" x1="155" y1="16" x2="155" y2="74" gradientUnits="userSpaceOnUse">
<stop stop-color="#FFBF24"/>
<stop offset="1" stop-color="#F4924B"/>
</linearGradient>
<linearGradient id="paint6_linear_136_631" x1="155" y1="16" x2="155" y2="74" gradientUnits="userSpaceOnUse">
<stop stop-color="#FFBF24"/>
<stop offset="1" stop-color="#F4924B"/>
</linearGradient>
<linearGradient id="paint7_linear_136_631" x1="155" y1="10" x2="155" y2="80" gradientUnits="userSpaceOnUse">
<stop stop-color="#FFC123"/>
<stop offset="1" stop-color="#F8832E"/>
</linearGradient>
<linearGradient id="paint8_linear_136_631" x1="154.75" y1="27" x2="154.75" y2="109.026" gradientUnits="userSpaceOnUse">
<stop stop-color="#FF9D55" stop-opacity="0.6"/>
<stop offset="1" stop-color="#FD8A37" stop-opacity="0"/>
</linearGradient>
<linearGradient id="paint9_linear_136_631" x1="143.046" y1="18.6391" x2="161.882" y2="98.473" gradientUnits="userSpaceOnUse">
<stop stop-color="#FFBD3E" stop-opacity="0.49"/>
<stop offset="1" stop-color="white" stop-opacity="0"/>
</linearGradient>
</defs>
</svg>
