<svg width="279" height="419" viewBox="0 0 279 419" fill="none" xmlns="http://www.w3.org/2000/svg">
<g clip-path="url(#clip0_203_232)">
<path d="M69.764 419C108.258 419 139.5 387.715 139.5 349.167V279.333H69.764C31.2697 279.333 0.0279541 310.619 0.0279541 349.167C0.0279541 387.715 31.2697 419 69.764 419Z" fill="#0ACF83"/>
<path d="M0.0279541 209.5C0.0279541 170.952 31.2697 139.667 69.764 139.667H139.5V279.333H69.764C31.2697 279.333 0.0279541 248.048 0.0279541 209.5Z" fill="#A259FF"/>
<path d="M0.0279541 69.8333C0.0279541 31.2853 31.2697 0 69.764 0H139.5V139.667H69.764C31.2697 139.667 0.0279541 108.381 0.0279541 69.8333Z" fill="#F24E1E"/>
<path d="M139.5 0H209.236C247.73 0 278.972 31.2853 278.972 69.8333C278.972 108.381 247.73 139.667 209.236 139.667H139.5V0Z" fill="#FF7262"/>
<path d="M278.972 209.5C278.972 248.048 247.73 279.333 209.236 279.333C170.742 279.333 139.5 248.048 139.5 209.5C139.5 170.952 170.742 139.667 209.236 139.667C247.73 139.667 278.972 170.952 278.972 209.5Z" fill="#1ABCFE"/>
</g>
<defs>
<clipPath id="clip0_203_232">
<rect width="279" height="419" fill="white"/>
</clipPath>
</defs>
</svg>
