<svg width="116" height="113" viewBox="0 0 116 113" fill="none" xmlns="http://www.w3.org/2000/svg">
<mask id="mask0_226_507" style="mask-type:alpha" maskUnits="userSpaceOnUse" x="18" y="17" width="84" height="84">
<path d="M101.338 43.9206L88.9317 48.288L88.6761 30.8471L59.219 17.1166L45.7967 33.3674L42.8749 24.7238L23.3216 29.5112L18.9926 75.4868L27.7175 91.8002L61.2864 100.497L96.5586 81.6321L101.338 43.9206Z" fill="#3178C6"/>
</mask>
<g mask="url(#mask0_226_507)">
<rect x="133.215" y="64.2954" width="109" height="87" transform="rotate(151.861 133.215 64.2954)" fill="#FFBDE9"/>
<path d="M38.8876 75.5647L40.4515 76.4677L57.8733 46.2931L56.3095 45.3901L38.8876 75.5647Z" fill="#E535AB"/>
<path d="M73.3732 73.1542L38.5295 73.1542L38.5295 74.96L73.3732 74.96L73.3732 73.1542Z" fill="#E535AB"/>
<path d="M39.219 74.1686L56.6473 84.2312L57.5502 82.6674L40.1219 72.6048L39.219 74.1686Z" fill="#E535AB"/>
<path d="M54.359 47.9431L71.7874 58.0056L72.6903 56.4418L55.2619 46.3792L54.359 47.9431Z" fill="#E535AB"/>
<path d="M39.2238 56.4349L40.1267 57.9988L57.5551 47.9362L56.6522 46.3724L39.2238 56.4349Z" fill="#E535AB"/>
<path d="M54.0442 46.2937L71.466 76.4683L73.0298 75.5654L55.608 45.3908L54.0442 46.2937Z" fill="#E535AB"/>
<path d="M41.7169 55.2373L39.9111 55.2373L39.9111 75.3624L41.7169 75.3624L41.7169 55.2373Z" fill="#E535AB"/>
<path d="M72.0025 55.2373L70.1967 55.2373L70.1967 75.3624L72.0025 75.3624L72.0025 55.2373Z" fill="#E535AB"/>
<path d="M55.5512 82.1009L56.3399 83.4669L71.4979 74.7152L70.7092 73.3492L55.5512 82.1009Z" fill="#E535AB"/>
<path d="M74.3957 75.95C73.3514 77.7667 71.0234 78.3868 69.2067 77.3424C67.39 76.2981 66.77 73.9701 67.8143 72.1534C68.8586 70.3367 71.1866 69.7166 73.0033 70.761C74.8309 71.8162 75.451 74.1333 74.3957 75.95Z" fill="#E535AB"/>
<path d="M44.0884 58.4464C43.0441 60.2631 40.7161 60.8832 38.8994 59.8389C37.0827 58.7946 36.4626 56.4666 37.5069 54.6499C38.5513 52.8332 40.8793 52.2131 42.696 53.2574C44.5127 54.3126 45.1327 56.6297 44.0884 58.4464Z" fill="#E535AB"/>
<path d="M37.5178 75.95C36.4735 74.1333 37.0936 71.8162 38.9103 70.761C40.727 69.7166 43.0441 70.3367 44.0993 72.1534C45.1436 73.9701 44.5235 76.2872 42.7068 77.3424C40.8793 78.3868 38.5622 77.7667 37.5178 75.95Z" fill="#E535AB"/>
<path d="M67.8252 58.4464C66.7808 56.6297 67.4009 54.3126 69.2176 53.2574C71.0343 52.2131 73.3514 52.8332 74.4066 54.6499C75.451 56.4666 74.8309 58.7837 73.0142 59.8389C71.1975 60.8832 68.8695 60.2631 67.8252 58.4464Z" fill="#E535AB"/>
<path d="M55.9568 86.5999C53.8572 86.5999 52.1602 84.9028 52.1602 82.8033C52.1602 80.7038 53.8572 79.0067 55.9568 79.0067C58.0563 79.0067 59.7534 80.7038 59.7534 82.8033C59.7534 84.892 58.0563 86.5999 55.9568 86.5999Z" fill="#E535AB"/>
<path d="M55.9568 51.5932C53.8572 51.5932 52.1602 49.8961 52.1602 47.7966C52.1602 45.697 53.8572 44 55.9568 44C58.0563 44 59.7534 45.697 59.7534 47.7966C59.7534 49.8961 58.0563 51.5932 55.9568 51.5932Z" fill="#E535AB"/>
</g>
</svg>
