<svg width="35" height="35" viewBox="0 0 35 35" fill="none" xmlns="http://www.w3.org/2000/svg">
<circle cx="17.5" cy="17.5" r="17.5" fill="#D9EBFF"/>
<g clip-path="url(#clip0_252_545)">
<path d="M9.26465 15.0978C9.26465 10.5496 12.9319 6.86255 17.4557 6.86255C21.9795 6.86255 25.6467 10.5496 25.6467 15.0978V26.8857C25.6467 27.5768 25.0895 28.1371 24.4019 28.1371H10.5094C9.82193 28.1371 9.26465 27.5768 9.26465 26.8857V15.0978Z" fill="url(#paint0_linear_252_545)"/>
<path fill-rule="evenodd" clip-rule="evenodd" d="M24.6735 27.1148V15.1218C24.6735 11.1023 21.442 7.84385 17.4557 7.84385C13.4694 7.84385 10.2378 11.1023 10.2378 15.1218V27.1148C10.2378 27.1375 10.256 27.1558 10.2784 27.1558H24.633C24.6554 27.1558 24.6735 27.1375 24.6735 27.1148ZM17.4557 6.86255C12.9319 6.86255 9.26465 10.5604 9.26465 15.1218V27.1148C9.26465 27.6794 9.71852 28.1371 10.2784 28.1371H24.633C25.1929 28.1371 25.6467 27.6794 25.6467 27.1148V15.1218C25.6467 10.5604 21.9795 6.86255 17.4557 6.86255Z" fill="#0A84FF"/>
</g>
<defs>
<linearGradient id="paint0_linear_252_545" x1="11.3732" y1="8.08918" x2="25.8171" y2="30.8781" gradientUnits="userSpaceOnUse">
<stop offset="0.265625" stop-color="white"/>
<stop offset="0.734375" stop-color="#0A84FF"/>
</linearGradient>
<clipPath id="clip0_252_545">
<rect width="16.4706" height="21.2745" fill="white" transform="translate(9.26465 6.86255)"/>
</clipPath>
</defs>
</svg>
