<svg width="239" height="239" viewBox="0 0 239 239" fill="none" xmlns="http://www.w3.org/2000/svg">
<path d="M111.682 0.186693C111.169 0.233368 109.535 0.396731 108.065 0.513419C74.1551 3.57064 42.3927 21.8673 22.2757 49.9891C11.0737 65.6252 3.90904 83.3618 1.20188 102.149C0.245045 108.706 0.128357 110.643 0.128357 119.535C0.128357 128.427 0.245045 130.364 1.20188 136.921C7.68973 181.753 39.5922 219.42 82.86 233.376C90.6081 235.873 98.7763 237.576 108.065 238.603C111.682 239 127.318 239 130.935 238.603C146.968 236.83 160.551 232.862 173.947 226.024C176 224.974 176.397 224.694 176.117 224.461C175.93 224.321 167.179 212.582 156.677 198.393L137.587 172.605L113.666 137.202C100.503 117.738 89.6746 101.822 89.5812 101.822C89.4879 101.798 89.3945 117.528 89.3479 136.735C89.2779 170.364 89.2545 171.718 88.8344 172.511C88.2277 173.655 87.7609 174.122 86.7807 174.635C86.0339 175.008 85.3805 175.078 81.8565 175.078H77.8191L76.7456 174.402C76.0455 173.958 75.532 173.375 75.182 172.698L74.6919 171.648L74.7386 124.856L74.8086 78.0408L75.532 77.1306C75.9054 76.6405 76.6989 76.0104 77.259 75.707C78.2159 75.2403 78.5893 75.1936 82.6267 75.1936C87.3875 75.1936 88.181 75.3803 89.4179 76.7339C89.768 77.1073 102.72 96.6175 118.216 120.118C133.713 143.619 154.903 175.709 165.312 191.461L184.215 220.097L185.172 219.466C193.643 213.959 202.605 206.117 209.7 197.949C224.799 180.609 234.531 159.466 237.798 136.921C238.755 130.364 238.872 128.427 238.872 119.535C238.872 110.643 238.755 108.706 237.798 102.149C231.31 57.317 199.408 19.6502 156.14 5.69436C148.509 3.22058 140.387 1.51693 131.285 0.490081C129.045 0.256705 113.619 -7.87526e-06 111.682 0.186693ZM160.551 72.3931C161.671 72.9532 162.581 74.0267 162.908 75.1469C163.095 75.7537 163.141 88.7294 163.095 117.971L163.025 159.932L155.627 148.59L148.205 137.248V106.746C148.205 87.0258 148.299 75.9404 148.439 75.4037C148.812 74.0968 149.629 73.0699 150.749 72.4631C151.706 71.973 152.056 71.9264 155.72 71.9264C159.174 71.9264 159.781 71.973 160.551 72.3931Z" fill="black"/>
<path d="M183.048 220.61C182.231 221.123 181.975 221.473 182.698 221.077C183.212 220.773 184.052 220.143 183.912 220.12C183.842 220.12 183.445 220.353 183.048 220.61ZM181.438 221.66C181.018 221.987 181.018 222.01 181.531 221.754C181.811 221.613 182.045 221.45 182.045 221.403C182.045 221.217 181.928 221.263 181.438 221.66ZM180.271 222.36C179.851 222.687 179.851 222.71 180.364 222.454C180.644 222.314 180.878 222.15 180.878 222.104C180.878 221.917 180.761 221.964 180.271 222.36ZM179.104 223.06C178.684 223.387 178.684 223.41 179.197 223.154C179.478 223.014 179.711 222.85 179.711 222.804C179.711 222.617 179.594 222.664 179.104 223.06ZM177.33 223.994C176.444 224.461 176.49 224.647 177.377 224.204C177.774 223.994 178.077 223.784 178.077 223.737C178.077 223.574 178.054 223.597 177.33 223.994Z" fill="black"/>
</svg>
