<svg width="208" height="46" viewBox="0 0 208 46" fill="none" xmlns="http://www.w3.org/2000/svg">
<rect x="8" y="8" width="200" height="38" rx="4" fill="#F1F1F1"/>
<path d="M84.6818 17.4034L83.142 17.6761C83.0777 17.4792 82.9754 17.2917 82.8352 17.1136C82.6989 16.9356 82.5133 16.7898 82.2784 16.6761C82.0436 16.5625 81.75 16.5057 81.3977 16.5057C80.9167 16.5057 80.5152 16.6136 80.1932 16.8295C79.8712 17.0417 79.7102 17.3163 79.7102 17.6534C79.7102 17.9451 79.8182 18.1799 80.0341 18.358C80.25 18.536 80.5985 18.6818 81.0795 18.7955L82.4659 19.1136C83.2689 19.2992 83.8674 19.5852 84.2614 19.9716C84.6553 20.358 84.8523 20.8598 84.8523 21.4773C84.8523 22 84.7008 22.4659 84.3977 22.875C84.0985 23.2803 83.6799 23.5985 83.142 23.8295C82.608 24.0606 81.9886 24.1761 81.2841 24.1761C80.3068 24.1761 79.5095 23.9678 78.892 23.5511C78.2746 23.1307 77.8958 22.5341 77.7557 21.7614L79.3977 21.5114C79.5 21.9394 79.7102 22.2633 80.0284 22.483C80.3466 22.6989 80.7614 22.8068 81.2727 22.8068C81.8295 22.8068 82.2746 22.6913 82.608 22.4602C82.9413 22.2254 83.108 21.9394 83.108 21.6023C83.108 21.3295 83.0057 21.1004 82.8011 20.9148C82.6004 20.7292 82.2917 20.589 81.875 20.4943L80.3977 20.1705C79.5833 19.9848 78.9811 19.6894 78.5909 19.2841C78.2045 18.8788 78.0114 18.3655 78.0114 17.7443C78.0114 17.2292 78.1553 16.7784 78.4432 16.392C78.7311 16.0057 79.1288 15.7045 79.6364 15.4886C80.1439 15.2689 80.7254 15.1591 81.3807 15.1591C82.3239 15.1591 83.0663 15.3636 83.608 15.7727C84.1496 16.178 84.5076 16.7216 84.6818 17.4034ZM86.7202 27.2727V15.2727H88.3793V16.6875H88.5213C88.6198 16.5057 88.7618 16.2955 88.9474 16.0568C89.133 15.8182 89.3906 15.6098 89.7202 15.4318C90.0497 15.25 90.4853 15.1591 91.027 15.1591C91.7315 15.1591 92.3603 15.3371 92.9134 15.6932C93.4664 16.0492 93.9001 16.5625 94.2145 17.233C94.5327 17.9034 94.6918 18.7102 94.6918 19.6534C94.6918 20.5966 94.5346 21.4053 94.2202 22.0795C93.9058 22.75 93.474 23.267 92.9247 23.6307C92.3755 23.9905 91.7486 24.1705 91.044 24.1705C90.5137 24.1705 90.08 24.0814 89.7429 23.9034C89.4096 23.7254 89.1482 23.517 88.9588 23.2784C88.7694 23.0398 88.6236 22.8277 88.5213 22.642H88.419V27.2727H86.7202ZM88.3849 19.6364C88.3849 20.25 88.474 20.7879 88.652 21.25C88.83 21.7121 89.0876 22.0739 89.4247 22.3352C89.7618 22.5928 90.1747 22.7216 90.6634 22.7216C91.1709 22.7216 91.5952 22.5871 91.9361 22.3182C92.277 22.0455 92.5346 21.6761 92.7088 21.2102C92.8868 20.7443 92.9759 20.2197 92.9759 19.6364C92.9759 19.0606 92.8887 18.5436 92.7145 18.0852C92.544 17.6269 92.2865 17.2652 91.9418 17C91.6009 16.7348 91.1747 16.6023 90.6634 16.6023C90.1709 16.6023 89.7543 16.7292 89.4134 16.983C89.0762 17.2367 88.8205 17.5909 88.6463 18.0455C88.4721 18.5 88.3849 19.0303 88.3849 19.6364ZM99.1349 24.1932C98.5819 24.1932 98.0819 24.0909 97.6349 23.8864C97.188 23.678 96.8338 23.3769 96.5724 22.983C96.3149 22.589 96.1861 22.1061 96.1861 21.5341C96.1861 21.0417 96.2808 20.6364 96.4702 20.3182C96.6596 20 96.9152 19.7481 97.2372 19.5625C97.5592 19.3769 97.919 19.2367 98.3168 19.142C98.7145 19.0473 99.1198 18.9754 99.5327 18.9261C100.055 18.8655 100.48 18.8163 100.805 18.7784C101.131 18.7367 101.368 18.6705 101.516 18.5795C101.663 18.4886 101.737 18.3409 101.737 18.1364V18.0966C101.737 17.6004 101.597 17.2159 101.317 16.9432C101.04 16.6705 100.627 16.5341 100.078 16.5341C99.5062 16.5341 99.0554 16.661 98.7259 16.9148C98.4001 17.1648 98.1747 17.4432 98.0497 17.75L96.4531 17.3864C96.6425 16.8561 96.919 16.428 97.2827 16.1023C97.6501 15.7727 98.0724 15.5341 98.5497 15.3864C99.027 15.2348 99.5289 15.1591 100.055 15.1591C100.404 15.1591 100.773 15.2008 101.163 15.2841C101.557 15.3636 101.925 15.5114 102.266 15.7273C102.61 15.9432 102.893 16.2519 103.112 16.6534C103.332 17.0511 103.442 17.5682 103.442 18.2045V24H101.783V22.8068H101.714C101.605 23.0265 101.44 23.2424 101.22 23.4545C101 23.6667 100.718 23.8428 100.374 23.983C100.029 24.1231 99.616 24.1932 99.1349 24.1932ZM99.5043 22.8295C99.974 22.8295 100.375 22.7367 100.709 22.5511C101.046 22.3655 101.302 22.1231 101.476 21.8239C101.654 21.5208 101.743 21.197 101.743 20.8523V19.7273C101.682 19.7879 101.565 19.8447 101.391 19.8977C101.22 19.947 101.025 19.9905 100.805 20.0284C100.586 20.0625 100.372 20.0947 100.163 20.125C99.955 20.1515 99.7808 20.1742 99.6406 20.1932C99.3111 20.2348 99.0099 20.3049 98.7372 20.4034C98.4683 20.5019 98.2524 20.6439 98.0895 20.8295C97.9304 21.0114 97.8509 21.2538 97.8509 21.5568C97.8509 21.9773 98.0062 22.2955 98.3168 22.5114C98.6274 22.7235 99.0232 22.8295 99.5043 22.8295ZM109.381 24.1761C108.536 24.1761 107.809 23.9848 107.199 23.6023C106.593 23.2159 106.127 22.6837 105.801 22.0057C105.475 21.3277 105.312 20.5511 105.312 19.6761C105.312 18.7898 105.479 18.0076 105.812 17.3295C106.146 16.6477 106.616 16.1155 107.222 15.733C107.828 15.3504 108.542 15.1591 109.364 15.1591C110.027 15.1591 110.617 15.2822 111.136 15.5284C111.655 15.7708 112.074 16.1117 112.392 16.5511C112.714 16.9905 112.905 17.5038 112.966 18.0909H111.312C111.222 17.6818 111.013 17.3295 110.688 17.0341C110.366 16.7386 109.934 16.5909 109.392 16.5909C108.919 16.5909 108.504 16.7159 108.148 16.9659C107.795 17.2121 107.521 17.5644 107.324 18.0227C107.127 18.4773 107.028 19.0152 107.028 19.6364C107.028 20.2727 107.125 20.822 107.318 21.2841C107.511 21.7462 107.784 22.1042 108.136 22.358C108.492 22.6117 108.911 22.7386 109.392 22.7386C109.714 22.7386 110.006 22.6799 110.267 22.5625C110.532 22.4413 110.754 22.2689 110.932 22.0455C111.114 21.822 111.241 21.553 111.312 21.2386H112.966C112.905 21.803 112.722 22.3068 112.415 22.75C112.108 23.1932 111.697 23.5417 111.182 23.7955C110.67 24.0492 110.07 24.1761 109.381 24.1761ZM118.544 24.1761C117.684 24.1761 116.944 23.9924 116.322 23.625C115.705 23.2538 115.228 22.733 114.891 22.0625C114.557 21.3883 114.391 20.5985 114.391 19.6932C114.391 18.7992 114.557 18.0114 114.891 17.3295C115.228 16.6477 115.697 16.1155 116.3 15.733C116.906 15.3504 117.614 15.1591 118.425 15.1591C118.917 15.1591 119.394 15.2405 119.857 15.4034C120.319 15.5663 120.733 15.822 121.101 16.1705C121.468 16.5189 121.758 16.9716 121.97 17.5284C122.182 18.0814 122.288 18.7538 122.288 19.5455V20.1477H115.351V18.875H120.624C120.624 18.428 120.533 18.0322 120.351 17.6875C120.169 17.339 119.913 17.0644 119.584 16.8636C119.258 16.6629 118.875 16.5625 118.436 16.5625C117.959 16.5625 117.542 16.6799 117.186 16.9148C116.834 17.1458 116.561 17.4489 116.368 17.8239C116.179 18.1951 116.084 18.5985 116.084 19.0341V20.0284C116.084 20.6117 116.186 21.108 116.391 21.517C116.599 21.9261 116.889 22.2386 117.26 22.4545C117.631 22.6667 118.065 22.7727 118.561 22.7727C118.883 22.7727 119.177 22.7273 119.442 22.6364C119.707 22.5417 119.936 22.4015 120.129 22.2159C120.322 22.0303 120.47 21.8011 120.572 21.5284L122.18 21.8182C122.052 22.2917 121.821 22.7064 121.487 23.0625C121.158 23.4148 120.743 23.6894 120.243 23.8864C119.747 24.0795 119.18 24.1761 118.544 24.1761Z" fill="black"/>
<rect x="1" y="1" width="198" height="36" rx="3" stroke="black" stroke-width="2"/>
</svg>
