<svg width="117" height="113" viewBox="0 0 117 113" fill="none" xmlns="http://www.w3.org/2000/svg">
<mask id="mask0_243_214" style="mask-type:alpha" maskUnits="userSpaceOnUse" x="15" y="12" width="83" height="84">
<path d="M15.5958 69.3463L27.9536 64.8423L28.4016 82.2793L58.0084 95.6839L71.2506 79.2859L74.2676 87.8968L93.7669 82.8939L97.5882 36.8733L88.6839 20.6571L55.021 12.3318L19.9591 31.5844L15.5958 69.3463Z" fill="#3178C6"/>
</mask>
<g mask="url(#mask0_243_214)">
<rect x="-16.5037" y="48.3245" width="109" height="87" transform="rotate(-28.7713 -16.5037 48.3245)" fill="#161D2D"/>
<path d="M60.9424 31.1817C51.9614 31.4671 49.2921 37.8827 48.6804 41.3583C49.4775 40.07 51.9892 37.2432 55.6873 37.2432C59.997 37.2432 63.278 42.0535 65.28 43.555C67.7122 45.3791 72.5995 47.7877 79.0156 45.835C84.1317 44.2779 86.5044 38.8466 87.0235 36.27C84.5488 39.6344 80.7951 41.6552 76.1517 39.2729C72.9541 37.6324 70.5629 30.8759 60.9424 31.1817Z" fill="#07B6D5"/>
<path d="M48.2356 46.4466C39.2546 46.732 36.5853 53.1476 35.9736 56.6232C36.7706 55.3349 39.2824 52.5081 42.9804 52.5081C47.2902 52.5081 50.5712 57.3184 52.5731 58.8198C55.0053 60.644 59.8927 63.0526 66.3088 61.0999C71.4249 59.5428 73.7976 54.1115 74.3166 51.5349C71.842 54.8993 68.0883 56.9201 63.4449 54.5378C60.2473 52.8973 57.8561 46.1408 48.2356 46.4466Z" fill="#07B6D5"/>
</g>
</svg>
