<svg width="55" height="57" viewBox="0 0 55 57" fill="none" xmlns="http://www.w3.org/2000/svg">
<path d="M50.7616 47.9654L50.8666 48.3254H51.2416H52.6082C52.9968 48.3254 53.4891 48.4938 53.8822 48.7975C54.2733 49.0997 54.4996 49.4802 54.5 49.875C54.4997 50.7949 53.6991 51.5954 52.7792 51.5954H46.9721C46.0521 51.5954 45.2513 50.7946 45.2513 49.8745C45.2513 49.0986 45.9072 48.3253 46.8006 48.3253H47.4646L47.2811 47.6871L43.3529 34.0225L43.2489 33.6606H42.8724H41.5058H41.0058V34.1606V38.0888C41.0058 39.0088 40.205 39.8096 39.285 39.8096H34.3335H33.7033L33.8466 40.4233L35.0428 45.5477L35.0427 45.5477L35.0446 45.5551C35.1723 46.0668 35.0542 46.5898 34.7978 46.9955C34.3377 47.4475 33.9529 47.6672 33.4792 47.6672H23.0602C22.5222 47.6672 22.0055 47.392 21.7675 47.0354C21.4932 46.6245 21.3629 46.0837 21.4948 45.5551L21.4949 45.5551L21.4966 45.5477L22.6928 40.4233L22.8361 39.8096H22.2059H15.715C14.795 39.8096 13.9942 39.0089 13.9942 38.0888V34.3323V33.8323H13.4942H12.1276H11.7511L11.6471 34.1942L7.71887 47.8588L7.53542 48.497H8.1994C8.97534 48.497 9.74869 49.1529 9.74869 50.0463C9.74869 50.9663 8.94794 51.7671 8.02787 51.7671H2.22083C1.30079 51.7671 0.5 50.9663 0.5 50.0463C0.5 49.1262 1.30077 48.3254 2.22083 48.3254H3.41704H3.79205L3.89704 47.9654L8.67259 31.5915C8.96682 30.8705 9.50128 30.3907 10.2488 30.3907H12.9796H13.4796V29.8907C13.4796 25.6613 13.9869 21.5973 14.8357 17.5242L14.8365 17.5204C15.5086 14.164 16.6823 11.1396 18.3667 8.10774C19.3097 6.54 20.8608 5.62434 22.5457 5.62434H24.9369H25.4369V5.12434V2.22082C25.4369 1.30079 26.2377 0.5 27.1578 0.5C28.0778 0.5 28.8786 1.30076 28.8786 2.22082V5.12434V5.62434H29.3786H31.7698C33.4824 5.62434 35.1749 6.56167 35.9346 8.0811L35.9395 8.09086L35.9448 8.10041C37.6314 11.1348 38.8077 14.1613 39.479 17.5202L39.4813 17.5319L39.4842 17.5435C40.4965 21.5926 40.8368 25.6521 41.0067 29.9106L41.0258 30.3907H41.5063H44.4098C45.157 30.3907 45.6906 30.87 45.9861 31.5918L50.7616 47.9654ZM30.4033 44.0553H31.0131L30.8936 43.4573L30.2109 40.0416L30.1306 39.6395H29.7206H26.3049H25.9145L25.8198 40.0182L24.9655 43.434L24.8101 44.0553H25.4506H30.4033ZM37.2361 36.3694H37.7359L37.7361 35.8696L37.7375 31.4281V31.4279C37.7375 26.9482 37.2206 22.6447 36.3612 18.349L36.3595 18.3407L36.3576 18.3324C35.667 15.4011 34.6291 12.4497 33.0628 9.83473C32.792 9.31325 32.2691 9.06505 31.7711 9.06505H22.8889C22.3921 9.06505 21.8669 9.31238 21.5968 9.83528C20.0307 12.451 18.9916 15.401 18.3023 18.3326L18.3004 18.3408L18.2988 18.349C17.4396 22.6439 16.9225 26.9475 16.9225 31.2574V35.8694V36.3694H17.4225H37.2361Z" fill="white" stroke="black"/>
<mask id="path-2-inside-1_1032_18" fill="white">
<path d="M32.9649 18.1055C32.6229 17.4228 32.1106 16.739 31.4279 16.2266C30.7452 15.7143 30.0613 15.3724 29.3786 15.0304C28.5244 14.86 27.8417 14.6885 26.9874 14.6885C26.1332 14.6885 25.2789 15.0304 24.5962 15.3712C23.9135 15.7131 23.2296 16.2254 22.5469 16.9081C22.0346 17.5908 21.6927 18.2747 21.3507 18.9574C21.0088 19.8117 21.0088 20.4944 21.0088 21.3486C21.0088 22.2029 21.3507 23.0572 21.6915 23.7398C22.0334 24.4225 22.5458 25.1064 23.2285 25.6187C23.9112 26.1311 24.595 26.473 25.2777 26.815C25.9604 26.9853 26.6443 27.1569 27.327 27.1569H27.669C28.5232 27.1569 29.3775 26.8149 30.0602 26.4742C30.7429 26.1322 31.4268 25.6199 32.1095 24.9372C32.6218 24.2545 32.9637 23.5706 33.3057 22.8879C33.6476 22.0337 33.6476 21.351 33.6476 20.4967C33.4772 19.6425 33.3068 18.7894 32.9649 18.1055ZM29.2072 21.5213C29.2072 21.6917 29.0368 22.0336 28.8652 22.204C28.6949 22.3744 28.5233 22.546 28.1825 22.7163C28.0122 22.8867 27.6702 22.8867 27.3283 22.8867C26.9863 22.8867 26.816 22.8867 26.474 22.7163C26.3036 22.7163 25.9617 22.546 25.7913 22.3744C25.6209 22.204 25.4494 22.0325 25.279 21.6917C25.1086 21.5213 25.1086 21.1794 25.1086 21.009C25.1086 20.8386 25.1086 20.4967 25.279 20.3263C25.4494 20.1559 25.4494 19.814 25.6209 19.6436C25.7913 19.4732 25.9629 19.3017 26.3036 19.1313C26.474 18.9609 26.816 18.9609 27.1579 18.9609H27.3283C27.4986 18.9609 27.8406 18.9609 28.011 19.1313C28.1813 19.1313 28.5233 19.3017 28.6937 19.4732C28.864 19.6436 29.0356 19.8152 29.206 20.1559C29.3764 20.3263 29.3764 20.6682 29.3764 20.8386C29.3776 21.009 29.3776 21.1806 29.2072 21.5213Z"/>
</mask>
<path d="M32.9649 18.1055C32.6229 17.4228 32.1106 16.739 31.4279 16.2266C30.7452 15.7143 30.0613 15.3724 29.3786 15.0304C28.5244 14.86 27.8417 14.6885 26.9874 14.6885C26.1332 14.6885 25.2789 15.0304 24.5962 15.3712C23.9135 15.7131 23.2296 16.2254 22.5469 16.9081C22.0346 17.5908 21.6927 18.2747 21.3507 18.9574C21.0088 19.8117 21.0088 20.4944 21.0088 21.3486C21.0088 22.2029 21.3507 23.0572 21.6915 23.7398C22.0334 24.4225 22.5458 25.1064 23.2285 25.6187C23.9112 26.1311 24.595 26.473 25.2777 26.815C25.9604 26.9853 26.6443 27.1569 27.327 27.1569H27.669C28.5232 27.1569 29.3775 26.8149 30.0602 26.4742C30.7429 26.1322 31.4268 25.6199 32.1095 24.9372C32.6218 24.2545 32.9637 23.5706 33.3057 22.8879C33.6476 22.0337 33.6476 21.351 33.6476 20.4967C33.4772 19.6425 33.3068 18.7894 32.9649 18.1055ZM29.2072 21.5213C29.2072 21.6917 29.0368 22.0336 28.8652 22.204C28.6949 22.3744 28.5233 22.546 28.1825 22.7163C28.0122 22.8867 27.6702 22.8867 27.3283 22.8867C26.9863 22.8867 26.816 22.8867 26.474 22.7163C26.3036 22.7163 25.9617 22.546 25.7913 22.3744C25.6209 22.204 25.4494 22.0325 25.279 21.6917C25.1086 21.5213 25.1086 21.1794 25.1086 21.009C25.1086 20.8386 25.1086 20.4967 25.279 20.3263C25.4494 20.1559 25.4494 19.814 25.6209 19.6436C25.7913 19.4732 25.9629 19.3017 26.3036 19.1313C26.474 18.9609 26.816 18.9609 27.1579 18.9609H27.3283C27.4986 18.9609 27.8406 18.9609 28.011 19.1313C28.1813 19.1313 28.5233 19.3017 28.6937 19.4732C28.864 19.6436 29.0356 19.8152 29.206 20.1559C29.3764 20.3263 29.3764 20.6682 29.3764 20.8386C29.3776 21.009 29.3776 21.1806 29.2072 21.5213Z" fill="white"/>
<path d="M32.9649 18.1055L33.8593 17.6583L33.859 17.6577L32.9649 18.1055ZM29.3786 15.0304L29.8265 14.1363L29.7062 14.076L29.5742 14.0497L29.3786 15.0304ZM24.5962 15.3712L24.1496 14.4764L24.1484 14.4771L24.5962 15.3712ZM22.5469 16.9081L21.8398 16.201L21.7897 16.2512L21.7471 16.3079L22.5469 16.9081ZM21.3507 18.9574L20.4566 18.5096L20.4379 18.547L20.4223 18.5858L21.3507 18.9574ZM21.6915 23.7398L20.7968 24.1864L20.7974 24.1877L21.6915 23.7398ZM25.2777 26.815L24.8299 27.7091L24.9286 27.7585L25.0356 27.7852L25.2777 26.815ZM30.0602 26.4742L30.5068 27.3689L30.508 27.3683L30.0602 26.4742ZM32.1095 24.9372L32.8166 25.6443L32.8667 25.5942L32.9093 25.5374L32.1095 24.9372ZM33.3057 22.8879L34.1998 23.3358L34.2185 23.2984L34.2341 23.2596L33.3057 22.8879ZM33.6476 20.4967H34.6476V20.398L34.6283 20.3012L33.6476 20.4967ZM29.2072 21.5213L28.3128 21.0741L28.2072 21.2853V21.5213H29.2072ZM28.8652 22.204L28.1606 21.4945L28.1581 21.4969L28.8652 22.204ZM28.1825 22.7163L27.7353 21.8219L27.5902 21.8945L27.4754 22.0092L28.1825 22.7163ZM26.474 22.7163L26.92 21.8213L26.7093 21.7163H26.474V22.7163ZM25.7913 22.3744L26.5009 21.6698L26.4984 21.6673L25.7913 22.3744ZM25.279 21.6917L26.1734 21.2445L26.1008 21.0993L25.9861 20.9846L25.279 21.6917ZM25.279 20.3263L24.5719 19.6192L24.5719 19.6192L25.279 20.3263ZM25.6209 19.6436L26.3256 20.3532L26.328 20.3507L25.6209 19.6436ZM26.3036 19.1313L26.7509 20.0257L26.896 19.9531L27.0107 19.8384L26.3036 19.1313ZM28.011 19.1313L27.3039 19.8384L27.5968 20.1313H28.011V19.1313ZM28.6937 19.4732L27.9841 20.1779L27.9866 20.1803L28.6937 19.4732ZM29.206 20.1559L28.3116 20.6031L28.3841 20.7483L28.4989 20.863L29.206 20.1559ZM29.3764 20.8386L28.3763 20.8386L28.3764 20.8456L29.3764 20.8386ZM33.859 17.6577C33.4612 16.8636 32.8569 16.0487 32.0281 15.4268L30.8277 17.0265C31.3643 17.4292 31.7846 17.9821 32.0708 18.5534L33.859 17.6577ZM32.0281 15.4268C31.2634 14.8529 30.5016 14.4745 29.8265 14.1363L28.9308 15.9245C29.621 16.2703 30.227 16.5757 30.8277 17.0265L32.0281 15.4268ZM29.5742 14.0497C28.7736 13.8901 27.9666 13.6885 26.9874 13.6885V15.6885C27.7167 15.6885 28.2751 15.83 29.183 16.0111L29.5742 14.0497ZM26.9874 13.6885C25.8925 13.6885 24.8656 14.1191 24.1496 14.4764L25.0428 16.2659C25.6922 15.9418 26.3739 15.6885 26.9874 15.6885V13.6885ZM24.1484 14.4771C23.3488 14.8776 22.5797 15.4612 21.8398 16.201L23.2541 17.6152C23.8796 16.9897 24.4783 16.5487 25.0441 16.2653L24.1484 14.4771ZM21.7471 16.3079C21.1732 17.0726 20.7948 17.8344 20.4566 18.5096L22.2448 19.4053C22.5906 18.715 22.896 18.109 23.3468 17.5084L21.7471 16.3079ZM20.4223 18.5858C20.0013 19.6378 20.0088 20.4974 20.0088 21.3486H22.0088C22.0088 20.4914 22.0163 19.9856 22.2791 19.329L20.4223 18.5858ZM20.0088 21.3486C20.0088 22.4436 20.4394 23.4704 20.7968 24.1864L22.5862 23.2932C22.2621 22.6439 22.0088 21.9622 22.0088 21.3486H20.0088ZM20.7974 24.1877C21.1951 24.9818 21.7995 25.7966 22.6282 26.4186L23.8287 24.8189C23.292 24.4162 22.8717 23.8633 22.5856 23.292L20.7974 24.1877ZM22.6282 26.4186C23.393 26.9924 24.1547 27.3709 24.8299 27.7091L25.7256 25.9208C25.0353 25.5751 24.4294 25.2697 23.8287 24.8189L22.6282 26.4186ZM25.0356 27.7852C25.6935 27.9494 26.4995 28.1569 27.327 28.1569V26.1569C26.7891 26.1569 26.2273 26.0213 25.5199 25.8447L25.0356 27.7852ZM27.327 28.1569H27.669V26.1569H27.327V28.1569ZM27.669 28.1569C28.7639 28.1569 29.7908 27.7263 30.5068 27.3689L29.6136 25.5795C28.9642 25.9036 28.2825 26.1569 27.669 26.1569V28.1569ZM30.508 27.3683C31.3077 26.9678 32.0767 26.3842 32.8166 25.6443L31.4024 24.2301C30.7768 24.8556 30.1781 25.2967 29.6123 25.5801L30.508 27.3683ZM32.9093 25.5374C33.4832 24.7727 33.8616 24.0109 34.1998 23.3358L32.4115 22.4401C32.0658 23.1304 31.7604 23.7363 31.3096 24.337L32.9093 25.5374ZM34.2341 23.2596C34.6551 22.2076 34.6476 21.348 34.6476 20.4967H32.6476C32.6476 21.3539 32.6401 21.8598 32.3773 22.5163L34.2341 23.2596ZM34.6283 20.3012C34.465 19.4822 34.2731 18.4858 33.8593 17.6583L32.0705 18.5528C32.3406 19.093 32.4895 19.8028 32.6669 20.6923L34.6283 20.3012ZM28.2072 21.5213C28.2072 21.4909 28.2091 21.4659 28.211 21.4475C28.2131 21.4289 28.2155 21.4142 28.2175 21.4039C28.2213 21.384 28.2247 21.3734 28.2249 21.373C28.2252 21.3719 28.224 21.3758 28.2205 21.3843C28.2171 21.3926 28.2123 21.4032 28.2061 21.4155C28.1933 21.4411 28.1787 21.4659 28.1654 21.4852C28.1591 21.4945 28.1546 21.5003 28.1525 21.5028C28.1502 21.5057 28.1527 21.5023 28.1606 21.4945L29.5699 22.9136C29.7563 22.7284 29.8999 22.5001 29.995 22.3099C30.0745 22.1509 30.2072 21.849 30.2072 21.5213H28.2072ZM28.1581 21.4969C28.0701 21.585 28.0208 21.6331 27.9628 21.6795C27.9107 21.7212 27.8422 21.7685 27.7353 21.8219L28.6298 23.6108C29.1182 23.3666 29.3818 23.1017 29.5724 22.9111L28.1581 21.4969ZM27.4754 22.0092C27.5526 21.9321 27.6267 21.8969 27.6615 21.8833C27.6941 21.8706 27.7051 21.8717 27.6787 21.8754C27.6537 21.879 27.6134 21.8825 27.5499 21.8846C27.486 21.8866 27.4168 21.8867 27.3283 21.8867V23.8867C27.4808 23.8867 27.7274 23.8887 27.9608 23.8554C28.1806 23.8241 28.5732 23.7399 28.8896 23.4234L27.4754 22.0092ZM27.3283 21.8867C27.1376 21.8867 27.0964 21.8842 27.0652 21.879C27.0586 21.8779 27.0263 21.8743 26.92 21.8213L26.0281 23.6114C26.2637 23.7288 26.4875 23.8104 26.7371 23.8519C26.962 23.8893 27.177 23.8867 27.3283 23.8867V21.8867ZM26.474 21.7163C26.5045 21.7163 26.5294 21.7182 26.5478 21.7202C26.5664 21.7222 26.5811 21.7247 26.5914 21.7267C26.6113 21.7305 26.6219 21.7339 26.6224 21.734C26.6234 21.7344 26.6196 21.7332 26.6111 21.7296C26.6028 21.7262 26.5922 21.7214 26.5799 21.7153C26.5542 21.7025 26.5295 21.6878 26.5101 21.6746C26.5008 21.6682 26.495 21.6638 26.4925 21.6617C26.4897 21.6594 26.493 21.6619 26.5009 21.6698L25.0817 23.079C25.2669 23.2655 25.4952 23.409 25.6855 23.5041C25.8444 23.5836 26.1464 23.7163 26.474 23.7163V21.7163ZM26.4984 21.6673C26.4104 21.5793 26.3622 21.5299 26.3158 21.472C26.2741 21.4199 26.2268 21.3513 26.1734 21.2445L24.3846 22.1389C24.6288 22.6273 24.8936 22.8909 25.0842 23.0815L26.4984 21.6673ZM25.9861 20.9846C26.0611 21.0596 26.0943 21.1297 26.1063 21.1591C26.1183 21.1886 26.1188 21.2009 26.1164 21.1863C26.1142 21.1734 26.1118 21.1513 26.1103 21.1183C26.1087 21.085 26.1086 21.0525 26.1086 21.009H24.1086C24.1086 21.0885 24.1068 21.2942 24.1435 21.5144C24.1762 21.7111 24.2646 22.0915 24.5719 22.3988L25.9861 20.9846ZM26.1086 21.009C26.1086 20.9655 26.1087 20.933 26.1103 20.8997C26.1118 20.8667 26.1142 20.8446 26.1164 20.8317C26.1188 20.8171 26.1183 20.8294 26.1063 20.8589C26.0943 20.8883 26.0611 20.9584 25.9861 21.0334L24.5719 19.6192C24.2646 19.9265 24.1762 20.3069 24.1435 20.5036C24.1068 20.7238 24.1086 20.9295 24.1086 21.009H26.1086ZM25.9861 21.0334C26.1449 20.8746 26.2368 20.7039 26.2907 20.5851C26.3428 20.4704 26.3802 20.355 26.3981 20.3015C26.4094 20.2676 26.4161 20.2478 26.4223 20.2306C26.4282 20.2144 26.4302 20.2104 26.4288 20.2135C26.4278 20.2157 26.3994 20.2798 26.3256 20.3532L24.9163 18.934C24.7567 19.0925 24.664 19.2633 24.6094 19.3829C24.5567 19.4984 24.5191 19.614 24.5009 19.6684C24.4895 19.7027 24.4828 19.7227 24.4764 19.7403C24.4704 19.7568 24.4684 19.7611 24.4696 19.7583C24.4703 19.7569 24.4983 19.6928 24.5719 19.6192L25.9861 21.0334ZM26.328 20.3507C26.4161 20.2627 26.4654 20.2145 26.5233 20.1681C26.5755 20.1264 26.644 20.0791 26.7509 20.0257L25.8564 18.2369C25.368 18.4811 25.1044 18.7459 24.9138 18.9365L26.328 20.3507ZM27.0107 19.8384C26.9336 19.9155 26.8595 19.9507 26.8246 19.9643C26.7921 19.977 26.781 19.976 26.8074 19.9722C26.8324 19.9686 26.8728 19.9651 26.9363 19.9631C27.0002 19.961 27.0694 19.9609 27.1579 19.9609V17.9609C27.0054 17.9609 26.7588 17.959 26.5254 17.9922C26.3056 18.0235 25.9129 18.1078 25.5965 18.4242L27.0107 19.8384ZM27.1579 19.9609H27.3283V17.9609H27.1579V19.9609ZM27.3283 19.9609C27.3718 19.9609 27.4042 19.961 27.4375 19.9625C27.4706 19.964 27.4927 19.9665 27.5056 19.9687C27.5202 19.9711 27.5079 19.9706 27.4784 19.9586C27.449 19.9466 27.3789 19.9134 27.3039 19.8384L28.7181 18.4242C28.4108 18.1169 28.0304 18.0285 27.8336 17.9957C27.6134 17.9591 27.4077 17.9609 27.3283 17.9609V19.9609ZM28.011 20.1313C27.9805 20.1313 27.9555 20.1294 27.9371 20.1274C27.9185 20.1254 27.9038 20.123 27.8935 20.121C27.8737 20.1172 27.863 20.1137 27.8626 20.1136C27.8616 20.1133 27.8654 20.1145 27.8739 20.118C27.8822 20.1214 27.8928 20.1262 27.9051 20.1323C27.9308 20.1452 27.9555 20.1598 27.9749 20.173C27.9841 20.1794 27.9899 20.1839 27.9925 20.1859C27.9953 20.1882 27.9919 20.1858 27.9841 20.1779L29.4032 18.7686C29.2181 18.5821 28.9898 18.4386 28.7995 18.3435C28.6406 18.264 28.3386 18.1313 28.011 18.1313V20.1313ZM27.9866 20.1803C28.0746 20.2684 28.1228 20.3177 28.1692 20.3756C28.2109 20.4278 28.2582 20.4963 28.3116 20.6031L30.1004 19.7087C29.8562 19.2203 29.5914 18.9567 29.4008 18.7661L27.9866 20.1803ZM28.4989 20.863C28.4239 20.788 28.3907 20.7179 28.3787 20.6885C28.3666 20.659 28.3662 20.6467 28.3686 20.6613C28.3708 20.6742 28.3732 20.6963 28.3747 20.7294C28.3762 20.7626 28.3764 20.7951 28.3764 20.8386H30.3764C30.3764 20.7591 30.3781 20.5534 30.3415 20.3332C30.3088 20.1365 30.2204 19.7561 29.9131 19.4488L28.4989 20.863ZM28.3764 20.8456C28.3767 20.8902 28.3765 20.9039 28.3759 20.9143C28.3756 20.9202 28.3753 20.921 28.3752 20.9218C28.3752 20.9219 28.3676 20.9645 28.3128 21.0741L30.1016 21.9685C30.2172 21.7374 30.2948 21.5239 30.3371 21.3103C30.3796 21.0956 30.377 20.9215 30.3763 20.8316L28.3764 20.8456Z" fill="black" mask="url(#path-2-inside-1_1032_18)"/>
<path d="M23 49L25.8571 55L28 51.5714L29.7857 55L33 49" stroke="white" stroke-width="1.5"/>
</svg>
