<svg width="117" height="78" viewBox="0 0 117 78" fill="none" xmlns="http://www.w3.org/2000/svg">
<path d="M0 39H39V78H0V39Z" fill="#479CEA"/>
<rect y="39" width="39" height="3" fill="white" fill-opacity="0.15"/>
<path d="M0 39L3 42L0 42L0 39Z" fill="#479CEA"/>
<path d="M36 42L39 39L39 42L36 42Z" fill="#479CEA"/>
<rect y="78" width="39" height="3" transform="rotate(-90 0 78)" fill="white" fill-opacity="0.1"/>
<path d="M0 78L3 75L2.99998 78L0 78Z" fill="#479CEA"/>
<path d="M3 42L-7.39105e-07 39L3 39L3 42Z" fill="#62ABED"/>
<rect x="39" y="78" width="39" height="3" transform="rotate(180 39 78)" fill="black" fill-opacity="0.2"/>
<path d="M39 78L36 75L39 75L39 78Z" fill="#479CEA"/>
<path d="M3 75L8.7024e-07 78L2.0504e-05 75L3 75Z" fill="#59A6EC"/>
<rect x="39" y="39" width="39" height="3" transform="rotate(90 39 39)" fill="black" fill-opacity="0.15"/>
<path d="M39 39L36 42L36 39L39 39Z" fill="#62ABED"/>
<path d="M36 75L39 78L36 78L36 75Z" fill="#397DBB"/>
<path d="M39 39H78V78H39V39Z" fill="#479CEA"/>
<rect x="39" y="39" width="39" height="3" fill="white" fill-opacity="0.15"/>
<path d="M39 39L42 42L39 42L39 39Z" fill="#479CEA"/>
<path d="M75 42L78 39L78 42L75 42Z" fill="#479CEA"/>
<rect x="39" y="78" width="39" height="3" transform="rotate(-90 39 78)" fill="white" fill-opacity="0.1"/>
<path d="M39 78L42 75L42 78L39 78Z" fill="#479CEA"/>
<path d="M42 42L39 39L42 39L42 42Z" fill="#62ABED"/>
<rect x="78" y="78" width="39" height="3" transform="rotate(180 78 78)" fill="black" fill-opacity="0.2"/>
<path d="M78 78L75 75L78 75L78 78Z" fill="#479CEA"/>
<path d="M42 75L39 78L39 75L42 75Z" fill="#59A6EC"/>
<rect x="78" y="39" width="39" height="3" transform="rotate(90 78 39)" fill="black" fill-opacity="0.15"/>
<path d="M78 39L75 42L75 39L78 39Z" fill="#62ABED"/>
<path d="M75 75L78 78L75 78L75 75Z" fill="#397DBB"/>
<path d="M78 39H117V78H78V39Z" fill="#479CEA"/>
<rect x="78" y="39" width="39" height="3" fill="white" fill-opacity="0.15"/>
<path d="M78 39L81 42L78 42L78 39Z" fill="#479CEA"/>
<path d="M114 42L117 39L117 42L114 42Z" fill="#479CEA"/>
<rect x="78" y="78" width="39" height="3" transform="rotate(-90 78 78)" fill="white" fill-opacity="0.1"/>
<path d="M78 78L81 75L81 78L78 78Z" fill="#479CEA"/>
<path d="M81 42L78 39L81 39L81 42Z" fill="#62ABED"/>
<rect x="117" y="78" width="39" height="3" transform="rotate(180 117 78)" fill="black" fill-opacity="0.2"/>
<path d="M117 78L114 75L117 75L117 78Z" fill="#479CEA"/>
<path d="M81 75L78 78L78 75L81 75Z" fill="#59A6EC"/>
<rect x="117" y="39" width="39" height="3" transform="rotate(90 117 39)" fill="black" fill-opacity="0.15"/>
<path d="M117 39L114 42L114 39L117 39Z" fill="#62ABED"/>
<path d="M114 75L117 78L114 78L114 75Z" fill="#397DBB"/>
<path d="M105.647 51.6178L104.131 68.6077L97.3135 70.4977L90.515 68.6104L89 51.6178H105.647Z" fill="#264DE4"/>
<path d="M102.832 67.5259L104.128 53.0072H97.3237V69.0531L102.832 67.5259Z" fill="#2965F1"/>
<path d="M92.4731 59.3096L92.6599 61.3936H97.3237V59.3096H92.4731Z" fill="#EBEBEB"/>
<path d="M97.3238 55.0913H97.3166H92.0979L92.2874 57.1754H97.3238V55.0913Z" fill="#EBEBEB"/>
<path d="M97.3237 66.8905V64.7222L97.3146 64.7247L94.9935 64.0979L94.8451 62.4358H93.7173H92.7531L93.045 65.7081L97.3141 66.8932L97.3237 66.8905Z" fill="#EBEBEB"/>
<path d="M92.9178 47H95.442V48.0556H93.9734V49.1111H95.442V50.1667H92.9178V47Z" fill="black"/>
<path d="M95.9469 47H98.4711V47.9179H97.0025V48.1015H98.4711V50.2126H95.9469V49.2488H97.4155V49.0652H95.9469V47Z" fill="black"/>
<path d="M98.9758 47H101.5V47.9179H100.031V48.1015H101.5V50.2126H98.9758V49.2488H100.444V49.0652H98.9758V47Z" fill="black"/>
<path d="M99.8827 61.3936L99.6408 64.0965L97.3164 64.7238V66.8921L101.589 65.7079L101.62 65.3558L102.11 59.8692L102.161 59.3095L102.537 55.0913H97.3164V57.1754H100.253L100.063 59.3095H97.3164V61.3936H99.8827Z" fill="white"/>
<path d="M78 0H117V39H78V0Z" fill="#479CEA"/>
<rect x="78" width="39" height="3" fill="white" fill-opacity="0.15"/>
<path d="M78 0L81 3L78 2.99998L78 0Z" fill="#479CEA"/>
<path d="M114 3L117 -6.07971e-07L117 3L114 3Z" fill="#479CEA"/>
<rect x="78" y="39" width="39" height="3" transform="rotate(-90 78 39)" fill="white" fill-opacity="0.1"/>
<path d="M78 39L81 36L81 39L78 39Z" fill="#479CEA"/>
<path d="M81 3L78 7.39106e-07L81 2.0504e-05L81 3Z" fill="#62ABED"/>
<rect x="117" y="39" width="39" height="3" transform="rotate(180 117 39)" fill="black" fill-opacity="0.2"/>
<path d="M117 39L114 36L117 36L117 39Z" fill="#479CEA"/>
<path d="M81 36L78 39L78 36L81 36Z" fill="#59A6EC"/>
<rect x="117" width="39" height="3" transform="rotate(90 117 0)" fill="black" fill-opacity="0.15"/>
<path d="M117 0L114 3L114 -1.31133e-07L117 0Z" fill="#62ABED"/>
<path d="M114 36L117 39L114 39L114 36Z" fill="#397DBB"/>
</svg>
