<svg width="78" height="117" viewBox="0 0 78 117" fill="none" xmlns="http://www.w3.org/2000/svg">
<path d="M39 78H78V117H39V78Z" fill="#1A1A1A"/>
<rect x="39" y="78" width="39" height="3" fill="white" fill-opacity="0.15"/>
<path d="M39 78L42 81L39 81L39 78Z" fill="#1A1A1A"/>
<path d="M75 81L78 78L78 81L75 81Z" fill="#1A1A1A"/>
<rect x="39" y="117" width="39" height="3" transform="rotate(-90 39 117)" fill="white" fill-opacity="0.1"/>
<path d="M39 117L42 114L42 117L39 117Z" fill="#1A1A1A"/>
<path d="M42 81L39 78L42 78L42 81Z" fill="#3B3B3B"/>
<rect x="78" y="117" width="39" height="3" transform="rotate(180 78 117)" fill="black" fill-opacity="0.2"/>
<path d="M78 117L75 114L78 114L78 117Z" fill="#1A1A1A"/>
<path d="M42 114L39 117L39 114L42 114Z" fill="#303030"/>
<rect x="78" y="78" width="39" height="3" transform="rotate(90 78 78)" fill="black" fill-opacity="0.15"/>
<path d="M78 78L75 81L75 78L78 78Z" fill="#3B3B3B"/>
<path d="M75 114L78 117L75 117L75 114Z" fill="#141414"/>
<path d="M39.0002 38.9995H78.0002V77.9995H39.0002V38.9995Z" fill="#1A1A1A"/>
<rect x="39.0002" y="38.9995" width="39" height="3" fill="white" fill-opacity="0.15"/>
<path d="M39.0002 38.9995L42.0002 41.9995L39.0002 41.9995L39.0002 38.9995Z" fill="#1A1A1A"/>
<path d="M75.0002 41.9995L78.0002 38.9995L78.0002 41.9995L75.0002 41.9995Z" fill="#1A1A1A"/>
<rect x="39.0002" y="77.9995" width="39" height="3" transform="rotate(-90 39.0002 77.9995)" fill="white" fill-opacity="0.1"/>
<path d="M39.0002 77.9995L42.0002 74.9995L42.0002 77.9995L39.0002 77.9995Z" fill="#1A1A1A"/>
<path d="M42.0002 41.9995L39.0002 38.9995L42.0002 38.9995L42.0002 41.9995Z" fill="#3B3B3B"/>
<rect x="78.0002" y="77.9995" width="39" height="3" transform="rotate(180 78.0002 77.9995)" fill="black" fill-opacity="0.2"/>
<path d="M78.0002 77.9995L75.0002 74.9995L78.0002 74.9995L78.0002 77.9995Z" fill="#1A1A1A"/>
<path d="M42.0002 74.9995L39.0002 77.9995L39.0003 74.9995L42.0002 74.9995Z" fill="#303030"/>
<rect x="78.0002" y="38.9995" width="39" height="3" transform="rotate(90 78.0002 38.9995)" fill="black" fill-opacity="0.15"/>
<path d="M78.0002 38.9995L75.0002 41.9995L75.0003 38.9995L78.0002 38.9995Z" fill="#3B3B3B"/>
<path d="M75.0002 74.9995L78.0002 77.9995L75.0002 77.9995L75.0002 74.9995Z" fill="#141414"/>
<path d="M58.8095 71.0158C66.1031 71.0158 72.0158 65.1031 72.0158 57.8095C72.0158 50.5158 66.1031 44.6031 58.8095 44.6031C51.5158 44.6031 45.6031 50.5158 45.6031 57.8095C45.6031 65.1031 51.5158 71.0158 58.8095 71.0158Z" fill="white"/>
<path d="M57.9445 44.6103C57.8877 44.6154 57.707 44.6335 57.5443 44.6464C53.7929 44.9846 50.2789 47.0085 48.0534 50.1192C46.8141 51.8488 46.0214 53.8107 45.7219 55.8888C45.6161 56.6142 45.6031 56.8285 45.6031 57.812C45.6031 58.7956 45.6161 59.0099 45.7219 59.7352C46.4397 64.6943 49.9691 68.8608 54.7559 70.4045C55.6131 70.6808 56.5168 70.8692 57.5443 70.9829C57.9445 71.0267 59.6744 71.0267 60.0746 70.9829C61.8483 70.7866 63.351 70.3479 64.833 69.5914C65.0602 69.4752 65.1041 69.4442 65.0731 69.4184C65.0524 69.4029 64.0842 68.1045 62.9224 66.5348L60.8104 63.6824L58.164 59.7662C56.7078 57.6133 55.5098 55.8527 55.4995 55.8527C55.4892 55.8501 55.4788 57.59 55.4737 59.7146C55.4659 63.4345 55.4633 63.5843 55.4169 63.672C55.3497 63.7985 55.2981 63.8502 55.1897 63.907C55.107 63.9483 55.0348 63.956 54.6449 63.956H54.1982L54.0795 63.8811C54.002 63.8321 53.9452 63.7676 53.9065 63.6927L53.8522 63.5765L53.8574 58.4006L53.8652 53.2221L53.9452 53.1214C53.9865 53.0672 54.0743 52.9975 54.1362 52.964C54.2421 52.9123 54.2834 52.9072 54.7301 52.9072C55.2568 52.9072 55.3446 52.9278 55.4814 53.0776C55.5201 53.1189 56.9531 55.277 58.6675 57.8766C60.3818 60.4761 62.7262 64.0257 63.8777 65.7682L65.969 68.9357L66.0749 68.8661C67.012 68.2567 68.0036 67.3895 68.7884 66.4858C70.4589 64.5678 71.5355 62.229 71.8969 59.7352C72.0028 59.0099 72.0158 58.7956 72.0158 57.812C72.0158 56.8285 72.0028 56.6142 71.8969 55.8888C71.1792 50.9298 67.6497 46.7632 62.863 45.2195C62.0187 44.9459 61.1202 44.7574 60.1133 44.6438C59.8654 44.618 58.1588 44.5896 57.9445 44.6103ZM63.351 52.5974C63.4749 52.6594 63.5756 52.7781 63.6118 52.902C63.6324 52.9692 63.6376 54.4045 63.6324 57.6391L63.6247 62.2806L62.8062 61.026L61.9852 59.7714V56.3974C61.9852 54.216 61.9955 52.9898 62.011 52.9304C62.0523 52.7859 62.1427 52.6723 62.2666 52.6052C62.3725 52.551 62.4112 52.5458 62.8165 52.5458C63.1986 52.5458 63.2658 52.551 63.351 52.5974Z" fill="#191919"/>
<path d="M0 39H39V78H0V39Z" fill="#1A1A1A"/>
<rect y="39" width="39" height="3" fill="white" fill-opacity="0.15"/>
<path d="M0 39L3 42L0 42L0 39Z" fill="#1A1A1A"/>
<path d="M36 42L39 39L39 42L36 42Z" fill="#1A1A1A"/>
<rect y="78" width="39" height="3" transform="rotate(-90 0 78)" fill="white" fill-opacity="0.1"/>
<path d="M0 78L3 75L2.99998 78L0 78Z" fill="#1A1A1A"/>
<path d="M3 42L-7.39105e-07 39L3 39L3 42Z" fill="#3B3B3B"/>
<rect x="39" y="78" width="39" height="3" transform="rotate(180 39 78)" fill="black" fill-opacity="0.2"/>
<path d="M39 78L36 75L39 75L39 78Z" fill="#1A1A1A"/>
<path d="M3 75L8.7024e-07 78L2.0504e-05 75L3 75Z" fill="#303030"/>
<rect x="39" y="39" width="39" height="3" transform="rotate(90 39 39)" fill="black" fill-opacity="0.15"/>
<path d="M39 39L36 42L36 39L39 39Z" fill="#3B3B3B"/>
<path d="M36 75L39 78L36 78L36 75Z" fill="#141414"/>
<path d="M0 0H39V39H0V0Z" fill="#1A1A1A"/>
<rect width="39" height="3" fill="white" fill-opacity="0.15"/>
<path d="M0 0L3 3L0 2.99998L0 0Z" fill="#1A1A1A"/>
<path d="M36 3L39 -6.07971e-07L39 3L36 3Z" fill="#1A1A1A"/>
<rect y="39" width="39" height="3" transform="rotate(-90 0 39)" fill="white" fill-opacity="0.1"/>
<path d="M0 39L3 36L2.99998 39L0 39Z" fill="#1A1A1A"/>
<path d="M3 3L-7.39105e-07 7.39106e-07L3 2.0504e-05L3 3Z" fill="#3B3B3B"/>
<rect x="39" y="39" width="39" height="3" transform="rotate(180 39 39)" fill="black" fill-opacity="0.2"/>
<path d="M39 39L36 36L39 36L39 39Z" fill="#1A1A1A"/>
<path d="M3 36L8.7024e-07 39L2.0504e-05 36L3 36Z" fill="#303030"/>
<rect x="39" width="39" height="3" transform="rotate(90 39 0)" fill="black" fill-opacity="0.15"/>
<path d="M39 0L36 3L36 -1.31133e-07L39 0Z" fill="#3B3B3B"/>
<path d="M36 36L39 39L36 39L36 36Z" fill="#141414"/>
</svg>
