<svg width="39" height="39" viewBox="0 0 39 39" fill="none" xmlns="http://www.w3.org/2000/svg">
<path d="M0 0H39V39H0V0Z" fill="#FFBDE9"/>
<rect width="39" height="3" fill="white" fill-opacity="0.15"/>
<path d="M0 0L3 3L0 2.99998L0 0Z" fill="#FFBDE9"/>
<path d="M36 3L39 -6.07971e-07L39 3L36 3Z" fill="#FFBDE9"/>
<rect y="39" width="39" height="3" transform="rotate(-90 0 39)" fill="white" fill-opacity="0.1"/>
<path d="M0 39L3 36L2.99998 39L0 39Z" fill="#FFBDE9"/>
<path d="M3 3L-7.39105e-07 7.39106e-07L3 2.0504e-05L3 3Z" fill="#FFC7EC"/>
<rect x="39" y="39" width="39" height="3" transform="rotate(180 39 39)" fill="black" fill-opacity="0.2"/>
<path d="M39 39L36 36L39 36L39 39Z" fill="#FFBDE9"/>
<path d="M3 36L8.7024e-07 39L2.0504e-05 36L3 36Z" fill="#FFC3EB"/>
<rect x="39" width="39" height="3" transform="rotate(90 39 0)" fill="black" fill-opacity="0.15"/>
<path d="M39 0L36 3L36 -1.31133e-07L39 0Z" fill="#FFC7EC"/>
<path d="M36 36L39 39L36 39L36 36Z" fill="#CC97BA"/>
</svg>
