<svg width="156" height="39" viewBox="0 0 156 39" fill="none" xmlns="http://www.w3.org/2000/svg">
<path d="M0 0H39V39H0V0Z" fill="#3178C6"/>
<rect width="39" height="3" fill="white" fill-opacity="0.15"/>
<path d="M0 0L3 3L0 2.99998L0 0Z" fill="#3178C6"/>
<path d="M36 3L39 -6.07971e-07L39 3L36 3Z" fill="#3178C6"/>
<rect y="39" width="39" height="3" transform="rotate(-90 0 39)" fill="white" fill-opacity="0.1"/>
<path d="M0 39L3 36L2.99998 39L0 39Z" fill="#3178C6"/>
<path d="M3 3L-7.39105e-07 7.39106e-07L3 2.0504e-05L3 3Z" fill="#508CCE"/>
<rect x="39" y="39" width="39" height="3" transform="rotate(180 39 39)" fill="black" fill-opacity="0.2"/>
<path d="M39 39L36 36L39 36L39 39Z" fill="#3178C6"/>
<path d="M3 36L8.7024e-07 39L2.0504e-05 36L3 36Z" fill="#4585CC"/>
<rect x="39" width="39" height="3" transform="rotate(90 39 0)" fill="black" fill-opacity="0.15"/>
<path d="M39 0L36 3L36 -1.31133e-07L39 0Z" fill="#508CCE"/>
<path d="M36 36L39 39L36 39L36 36Z" fill="#27609E"/>
<path d="M39 0H78V39H39V0Z" fill="#3178C6"/>
<rect x="39" width="39" height="3" fill="white" fill-opacity="0.15"/>
<path d="M39 0L42 3L39 2.99998L39 0Z" fill="#3178C6"/>
<path d="M75 3L78 -6.07971e-07L78 3L75 3Z" fill="#3178C6"/>
<rect x="39" y="39" width="39" height="3" transform="rotate(-90 39 39)" fill="white" fill-opacity="0.1"/>
<path d="M39 39L42 36L42 39L39 39Z" fill="#3178C6"/>
<path d="M42 3L39 7.39106e-07L42 2.0504e-05L42 3Z" fill="#508CCE"/>
<rect x="78" y="39" width="39" height="3" transform="rotate(180 78 39)" fill="black" fill-opacity="0.2"/>
<path d="M78 39L75 36L78 36L78 39Z" fill="#3178C6"/>
<path d="M42 36L39 39L39 36L42 36Z" fill="#4585CC"/>
<rect x="78" width="39" height="3" transform="rotate(90 78 0)" fill="black" fill-opacity="0.15"/>
<path d="M78 0L75 3L75 -1.31133e-07L78 0Z" fill="#508CCE"/>
<path d="M75 36L78 39L75 39L75 36Z" fill="#27609E"/>
<path d="M78 0H117V39H78V0Z" fill="#3178C6"/>
<rect x="78" width="39" height="3" fill="white" fill-opacity="0.15"/>
<path d="M78 0L81 3L78 2.99998L78 0Z" fill="#3178C6"/>
<path d="M114 3L117 -6.07971e-07L117 3L114 3Z" fill="#3178C6"/>
<rect x="78" y="39" width="39" height="3" transform="rotate(-90 78 39)" fill="white" fill-opacity="0.1"/>
<path d="M78 39L81 36L81 39L78 39Z" fill="#3178C6"/>
<path d="M81 3L78 7.39106e-07L81 2.0504e-05L81 3Z" fill="#508CCE"/>
<rect x="117" y="39" width="39" height="3" transform="rotate(180 117 39)" fill="black" fill-opacity="0.2"/>
<path d="M117 39L114 36L117 36L117 39Z" fill="#3178C6"/>
<path d="M81 36L78 39L78 36L81 36Z" fill="#4585CC"/>
<rect x="117" width="39" height="3" transform="rotate(90 117 0)" fill="black" fill-opacity="0.15"/>
<path d="M117 0L114 3L114 -1.31133e-07L117 0Z" fill="#508CCE"/>
<path d="M114 36L117 39L114 39L114 36Z" fill="#27609E"/>
<path d="M117 0H156V39H117V0Z" fill="#3178C6"/>
<rect x="117" width="39" height="3" fill="white" fill-opacity="0.15"/>
<path d="M117 0L120 3L117 2.99998L117 0Z" fill="#3178C6"/>
<path d="M153 3L156 -6.07971e-07L156 3L153 3Z" fill="#3178C6"/>
<rect x="117" y="39" width="39" height="3" transform="rotate(-90 117 39)" fill="white" fill-opacity="0.1"/>
<path d="M117 39L120 36L120 39L117 39Z" fill="#3178C6"/>
<path d="M120 3L117 7.39106e-07L120 2.0504e-05L120 3Z" fill="#508CCE"/>
<rect x="156" y="39" width="39" height="3" transform="rotate(180 156 39)" fill="black" fill-opacity="0.2"/>
<path d="M156 39L153 36L156 36L156 39Z" fill="#3178C6"/>
<path d="M120 36L117 39L117 36L120 36Z" fill="#4585CC"/>
<rect x="156" width="39" height="3" transform="rotate(90 156 0)" fill="black" fill-opacity="0.15"/>
<path d="M156 0L153 3L153 -1.31133e-07L156 0Z" fill="#508CCE"/>
<path d="M153 36L156 39L153 39L153 36Z" fill="#27609E"/>
<path fill-rule="evenodd" clip-rule="evenodd" d="M138.826 27.9287V31.1513C139.348 31.422 139.986 31.6218 140.695 31.7572C141.404 31.8925 142.178 31.957 142.951 31.957C143.725 31.957 144.434 31.8861 145.143 31.7379C145.852 31.5896 146.432 31.3447 146.947 31.0289C147.469 30.6873 147.914 30.2554 148.172 29.6754C148.43 29.0953 148.629 28.4507 148.629 27.6129C148.629 27.0263 148.539 26.5171 148.365 26.066C148.191 25.6148 147.94 25.2281 147.592 24.9058C147.263 24.5642 146.883 24.2613 146.432 24.0035C145.98 23.7457 145.465 23.475 144.885 23.23C144.459 23.056 144.111 22.8884 143.725 22.7209C143.389 22.5533 143.099 22.3857 142.887 22.2181C142.648 22.0441 142.468 21.8636 142.339 21.6767C142.21 21.4834 142.146 21.2707 142.146 21.0322C142.146 20.813 142.203 20.6132 142.32 20.4328C142.436 20.2523 142.597 20.1041 142.803 19.9752C143.009 19.8463 143.267 19.7496 143.576 19.6787C143.879 19.6078 144.214 19.5755 144.608 19.5755C144.878 19.5755 145.162 19.5955 145.446 19.6361C145.742 19.6767 146.045 19.7393 146.348 19.823C146.651 19.9068 146.947 20.01 147.25 20.1389C147.534 20.2678 147.798 20.416 148.024 20.5836V17.5543C147.534 17.3674 146.992 17.2256 146.412 17.1354C145.832 17.0451 145.188 17 144.414 17C143.641 17 142.932 17.0838 142.223 17.2449C141.514 17.4061 140.934 17.6639 140.418 18.0184C139.896 18.3664 139.516 18.7918 139.194 19.3719C138.891 19.9133 138.742 20.532 138.742 21.3055C138.742 22.2723 139.02 23.1102 139.58 23.7547C140.135 24.4637 140.998 24.9793 142.094 25.4949C142.539 25.6754 142.932 25.8559 143.319 26.0299C143.705 26.2039 144.028 26.3844 144.285 26.5713C144.563 26.7582 144.782 26.9645 144.93 27.1836C145.091 27.4027 145.175 27.6605 145.175 27.957C145.175 28.1633 145.125 28.3566 145.027 28.5371C144.929 28.7176 144.775 28.8723 144.569 29.0012C144.363 29.1301 144.111 29.2332 143.796 29.3105C143.493 29.3814 143.151 29.4201 142.7 29.4201C141.991 29.4201 141.282 29.2977 140.637 29.0527C139.928 28.8078 139.284 28.4404 138.704 27.957L138.826 27.9287ZM133.412 20.0009H137.537V17.3584H126V20.0009H130.125V31.7959H133.412V20.0009Z" fill="white"/>
</svg>
